<mxfile host="app.diagrams.net" agent="Mozilla/5.0 (Windows NT 10.0; Win64; x64) AppleWebKit/537.36 (KHTML, like Gecko) Chrome/139.0.0.0 Safari/537.36" version="28.1.1">
  <diagram name="第 1 页" id="a7vEhYP6rL8GsZ4J2X63">
    <mxGraphModel dx="815" dy="425" grid="1" gridSize="5" guides="1" tooltips="1" connect="1" arrows="1" fold="1" page="1" pageScale="1" pageWidth="1169" pageHeight="827" math="1" shadow="0">
      <root>
        <mxCell id="0" />
        <mxCell id="1" parent="0" />
        <mxCell id="FkXduTycxBEro7HCxzzV-103" value="" style="rounded=1;whiteSpace=wrap;html=1;dashed=1;strokeColor=#CCCCCC;" vertex="1" parent="1">
          <mxGeometry x="415" y="120" width="160" height="200" as="geometry" />
        </mxCell>
        <mxCell id="Q9Ri4ofh50V_gN4US0mv-2" value="主要参照PKEF" style="text;html=1;align=center;verticalAlign=middle;resizable=0;points=[];autosize=1;strokeColor=none;fillColor=none;" parent="1" vertex="1">
          <mxGeometry width="100" height="30" as="geometry" />
        </mxCell>
        <mxCell id="FkXduTycxBEro7HCxzzV-1" value="" style="rounded=0;whiteSpace=wrap;html=1;shadow=1;" vertex="1" parent="1">
          <mxGeometry x="80" y="105" width="220" height="450" as="geometry" />
        </mxCell>
        <mxCell id="FkXduTycxBEro7HCxzzV-2" value="" style="rounded=1;whiteSpace=wrap;html=1;dashed=1;" vertex="1" parent="1">
          <mxGeometry x="115.56999999999971" y="364.99999999999994" width="41" height="170" as="geometry" />
        </mxCell>
        <mxCell id="FkXduTycxBEro7HCxzzV-3" value="" style="group" vertex="1" connectable="0" parent="1">
          <mxGeometry x="115" y="125" width="160" height="160" as="geometry" />
        </mxCell>
        <mxCell id="FkXduTycxBEro7HCxzzV-4" value="" style="ellipse;whiteSpace=wrap;html=1;aspect=fixed;dashed=1;" vertex="1" parent="FkXduTycxBEro7HCxzzV-3">
          <mxGeometry width="159.99999999999997" height="159.99999999999997" as="geometry" />
        </mxCell>
        <mxCell id="FkXduTycxBEro7HCxzzV-5" style="rounded=0;orthogonalLoop=1;jettySize=auto;html=1;exitX=0;exitY=1;exitDx=0;exitDy=0;entryX=1;entryY=0.5;entryDx=0;entryDy=0;endArrow=none;startFill=0;fillColor=#dae8fc;strokeColor=#6c8ebf;" edge="1" parent="FkXduTycxBEro7HCxzzV-3" source="FkXduTycxBEro7HCxzzV-6" target="FkXduTycxBEro7HCxzzV-15">
          <mxGeometry relative="1" as="geometry" />
        </mxCell>
        <mxCell id="FkXduTycxBEro7HCxzzV-6" value="" style="ellipse;whiteSpace=wrap;html=1;aspect=fixed;fillColor=#f5f5f5;strokeColor=#666666;fontColor=#333333;" vertex="1" parent="FkXduTycxBEro7HCxzzV-3">
          <mxGeometry x="73.89776531838154" y="84.58149779735685" width="12.215624933495072" height="12.215624933495072" as="geometry" />
        </mxCell>
        <mxCell id="FkXduTycxBEro7HCxzzV-7" style="rounded=0;orthogonalLoop=1;jettySize=auto;html=1;exitX=0.5;exitY=1;exitDx=0;exitDy=0;entryX=0.5;entryY=0;entryDx=0;entryDy=0;fillColor=#dae8fc;strokeColor=#6c8ebf;startArrow=none;startFill=0;endArrow=none;" edge="1" parent="FkXduTycxBEro7HCxzzV-3" source="FkXduTycxBEro7HCxzzV-8" target="FkXduTycxBEro7HCxzzV-20">
          <mxGeometry relative="1" as="geometry" />
        </mxCell>
        <mxCell id="FkXduTycxBEro7HCxzzV-8" value="" style="ellipse;whiteSpace=wrap;html=1;aspect=fixed;fillColor=#dae8fc;strokeColor=#6c8ebf;" vertex="1" parent="FkXduTycxBEro7HCxzzV-3">
          <mxGeometry x="125.15927913496189" y="37.32863436123348" width="12.215624933495072" height="12.215624933495072" as="geometry" />
        </mxCell>
        <mxCell id="FkXduTycxBEro7HCxzzV-9" style="rounded=0;orthogonalLoop=1;jettySize=auto;html=1;exitX=1;exitY=0;exitDx=0;exitDy=0;entryX=0;entryY=1;entryDx=0;entryDy=0;endArrow=none;startFill=0;fillColor=#dae8fc;strokeColor=#6c8ebf;" edge="1" parent="FkXduTycxBEro7HCxzzV-3" source="FkXduTycxBEro7HCxzzV-10" target="FkXduTycxBEro7HCxzzV-21">
          <mxGeometry relative="1" as="geometry" />
        </mxCell>
        <mxCell id="FkXduTycxBEro7HCxzzV-10" value="" style="ellipse;whiteSpace=wrap;html=1;aspect=fixed;fillColor=#dae8fc;strokeColor=#6c8ebf;" vertex="1" parent="FkXduTycxBEro7HCxzzV-3">
          <mxGeometry x="54.67469763716508" y="63.436123348017645" width="12.215624933495072" height="12.215624933495072" as="geometry" />
        </mxCell>
        <mxCell id="FkXduTycxBEro7HCxzzV-11" style="rounded=0;orthogonalLoop=1;jettySize=auto;html=1;exitX=1;exitY=0;exitDx=0;exitDy=0;entryX=0;entryY=0.5;entryDx=0;entryDy=0;endArrow=none;startFill=0;fillColor=#dae8fc;strokeColor=#6c8ebf;" edge="1" parent="FkXduTycxBEro7HCxzzV-3" source="FkXduTycxBEro7HCxzzV-12" target="FkXduTycxBEro7HCxzzV-20">
          <mxGeometry relative="1" as="geometry" />
        </mxCell>
        <mxCell id="FkXduTycxBEro7HCxzzV-12" value="" style="ellipse;whiteSpace=wrap;html=1;aspect=fixed;fillColor=#dae8fc;strokeColor=#6c8ebf;" vertex="1" parent="FkXduTycxBEro7HCxzzV-3">
          <mxGeometry x="93.12083299959934" y="105.72687224669608" width="12.215624933495072" height="12.215624933495072" as="geometry" />
        </mxCell>
        <mxCell id="FkXduTycxBEro7HCxzzV-13" style="rounded=0;orthogonalLoop=1;jettySize=auto;html=1;exitX=1;exitY=1;exitDx=0;exitDy=0;entryX=0;entryY=0;entryDx=0;entryDy=0;endArrow=none;startFill=0;fillColor=#dae8fc;strokeColor=#6c8ebf;" edge="1" parent="FkXduTycxBEro7HCxzzV-3" source="FkXduTycxBEro7HCxzzV-14" target="FkXduTycxBEro7HCxzzV-20">
          <mxGeometry relative="1" as="geometry" />
        </mxCell>
        <mxCell id="FkXduTycxBEro7HCxzzV-14" value="" style="ellipse;whiteSpace=wrap;html=1;aspect=fixed;fillColor=#dae8fc;strokeColor=#6c8ebf;" vertex="1" parent="FkXduTycxBEro7HCxzzV-3">
          <mxGeometry x="99.52852222667238" y="61.09603524229078" width="12.215624933495072" height="12.215624933495072" as="geometry" />
        </mxCell>
        <mxCell id="FkXduTycxBEro7HCxzzV-15" value="" style="ellipse;whiteSpace=wrap;html=1;aspect=fixed;fillColor=#dae8fc;strokeColor=#6c8ebf;" vertex="1" parent="FkXduTycxBEro7HCxzzV-3">
          <mxGeometry x="41.85931918302032" y="105.72687224669608" width="12.215624933495072" height="12.215624933495072" as="geometry" />
        </mxCell>
        <mxCell id="FkXduTycxBEro7HCxzzV-16" style="rounded=0;orthogonalLoop=1;jettySize=auto;html=1;exitX=0;exitY=1;exitDx=0;exitDy=0;entryX=1;entryY=0;entryDx=0;entryDy=0;endArrow=none;startFill=0;fillColor=#dae8fc;strokeColor=#6c8ebf;" edge="1" parent="FkXduTycxBEro7HCxzzV-3" source="FkXduTycxBEro7HCxzzV-14" target="FkXduTycxBEro7HCxzzV-6">
          <mxGeometry relative="1" as="geometry">
            <mxPoint x="125.15927913496189" y="100.20792951541853" as="sourcePoint" />
            <mxPoint x="99.52852222667238" y="100.20792951541853" as="targetPoint" />
          </mxGeometry>
        </mxCell>
        <mxCell id="FkXduTycxBEro7HCxzzV-17" style="rounded=0;orthogonalLoop=1;jettySize=auto;html=1;exitX=1;exitY=1;exitDx=0;exitDy=0;entryX=0;entryY=0.5;entryDx=0;entryDy=0;endArrow=none;startFill=0;fillColor=#dae8fc;strokeColor=#6c8ebf;" edge="1" parent="FkXduTycxBEro7HCxzzV-3" source="FkXduTycxBEro7HCxzzV-6" target="FkXduTycxBEro7HCxzzV-12">
          <mxGeometry relative="1" as="geometry">
            <mxPoint x="61.08238686423679" y="105.72687224669608" as="sourcePoint" />
            <mxPoint x="35.451629955947276" y="105.72687224669608" as="targetPoint" />
          </mxGeometry>
        </mxCell>
        <mxCell id="FkXduTycxBEro7HCxzzV-18" style="rounded=0;orthogonalLoop=1;jettySize=auto;html=1;exitX=0;exitY=0;exitDx=0;exitDy=0;entryX=1;entryY=1;entryDx=0;entryDy=0;endArrow=none;startFill=0;fillColor=#dae8fc;strokeColor=#6c8ebf;" edge="1" parent="FkXduTycxBEro7HCxzzV-3" source="FkXduTycxBEro7HCxzzV-6" target="FkXduTycxBEro7HCxzzV-10">
          <mxGeometry relative="1" as="geometry">
            <mxPoint x="99.52852222667238" y="77.53303964757708" as="sourcePoint" />
            <mxPoint x="73.89776531838154" y="77.53303964757708" as="targetPoint" />
          </mxGeometry>
        </mxCell>
        <mxCell id="FkXduTycxBEro7HCxzzV-19" style="rounded=0;orthogonalLoop=1;jettySize=auto;html=1;exitX=0;exitY=1;exitDx=0;exitDy=0;entryX=1;entryY=0;entryDx=0;entryDy=0;endArrow=none;startFill=0;fillColor=#dae8fc;strokeColor=#6c8ebf;" edge="1" parent="FkXduTycxBEro7HCxzzV-3" source="FkXduTycxBEro7HCxzzV-8" target="FkXduTycxBEro7HCxzzV-14">
          <mxGeometry relative="1" as="geometry">
            <mxPoint x="131.56696836203494" y="49.33920704845815" as="sourcePoint" />
            <mxPoint x="114.90697637164637" y="62.73127753303965" as="targetPoint" />
          </mxGeometry>
        </mxCell>
        <mxCell id="FkXduTycxBEro7HCxzzV-20" value="" style="ellipse;whiteSpace=wrap;html=1;aspect=fixed;fillColor=#f5f5f5;strokeColor=#666666;fontColor=#333333;" vertex="1" parent="FkXduTycxBEro7HCxzzV-3">
          <mxGeometry x="125.15927913496189" y="86.71718061674011" width="12.215624933495072" height="12.215624933495072" as="geometry" />
        </mxCell>
        <mxCell id="FkXduTycxBEro7HCxzzV-21" value="" style="ellipse;whiteSpace=wrap;html=1;aspect=fixed;fillColor=#f5f5f5;strokeColor=#666666;fontColor=#333333;" vertex="1" parent="FkXduTycxBEro7HCxzzV-3">
          <mxGeometry x="73.89776531838154" y="31.718061674008823" width="12.215624933495072" height="12.215624933495072" as="geometry" />
        </mxCell>
        <mxCell id="FkXduTycxBEro7HCxzzV-22" style="rounded=0;orthogonalLoop=1;jettySize=auto;html=1;exitX=1;exitY=0.5;exitDx=0;exitDy=0;entryX=0;entryY=0.5;entryDx=0;entryDy=0;endArrow=none;startFill=0;fillColor=#dae8fc;strokeColor=#6c8ebf;" edge="1" parent="FkXduTycxBEro7HCxzzV-3" source="FkXduTycxBEro7HCxzzV-24" target="FkXduTycxBEro7HCxzzV-10">
          <mxGeometry relative="1" as="geometry" />
        </mxCell>
        <mxCell id="FkXduTycxBEro7HCxzzV-23" style="rounded=0;orthogonalLoop=1;jettySize=auto;html=1;exitX=1;exitY=1;exitDx=0;exitDy=0;entryX=0;entryY=0;entryDx=0;entryDy=0;startArrow=none;startFill=0;endArrow=none;fillColor=#dae8fc;strokeColor=#6c8ebf;" edge="1" parent="FkXduTycxBEro7HCxzzV-3" source="FkXduTycxBEro7HCxzzV-24" target="FkXduTycxBEro7HCxzzV-15">
          <mxGeometry relative="1" as="geometry" />
        </mxCell>
        <mxCell id="FkXduTycxBEro7HCxzzV-24" value="" style="ellipse;whiteSpace=wrap;html=1;aspect=fixed;fillColor=#f5f5f5;strokeColor=#666666;fontColor=#333333;" vertex="1" parent="FkXduTycxBEro7HCxzzV-3">
          <mxGeometry x="16.22856227472948" y="61.09603524229078" width="12.215624933495072" height="12.215624933495072" as="geometry" />
        </mxCell>
        <mxCell id="FkXduTycxBEro7HCxzzV-25" style="rounded=0;orthogonalLoop=1;jettySize=auto;html=1;exitX=1;exitY=0.5;exitDx=0;exitDy=0;entryX=0;entryY=0.5;entryDx=0;entryDy=0;endArrow=none;startFill=0;fillColor=#dae8fc;strokeColor=#6c8ebf;" edge="1" parent="FkXduTycxBEro7HCxzzV-3" source="FkXduTycxBEro7HCxzzV-26" target="FkXduTycxBEro7HCxzzV-21">
          <mxGeometry relative="1" as="geometry" />
        </mxCell>
        <mxCell id="FkXduTycxBEro7HCxzzV-26" value="" style="ellipse;whiteSpace=wrap;html=1;aspect=fixed;fillColor=#dae8fc;strokeColor=#6c8ebf;" vertex="1" parent="FkXduTycxBEro7HCxzzV-3">
          <mxGeometry x="41.85931918302032" y="23.23171806167401" width="12.215624933495072" height="12.215624933495072" as="geometry" />
        </mxCell>
        <mxCell id="FkXduTycxBEro7HCxzzV-27" style="rounded=0;orthogonalLoop=1;jettySize=auto;html=1;exitX=1;exitY=0;exitDx=0;exitDy=0;entryX=0;entryY=1;entryDx=0;entryDy=0;endArrow=none;startFill=0;fillColor=#dae8fc;strokeColor=#6c8ebf;" edge="1" parent="FkXduTycxBEro7HCxzzV-3" source="FkXduTycxBEro7HCxzzV-28" target="FkXduTycxBEro7HCxzzV-12">
          <mxGeometry relative="1" as="geometry" />
        </mxCell>
        <mxCell id="FkXduTycxBEro7HCxzzV-28" value="" style="ellipse;whiteSpace=wrap;html=1;aspect=fixed;fillColor=#f5f5f5;strokeColor=#666666;fontColor=#333333;" vertex="1" parent="FkXduTycxBEro7HCxzzV-3">
          <mxGeometry x="67.49007609130983" y="135.68281938325995" width="12.215624933495072" height="12.215624933495072" as="geometry" />
        </mxCell>
        <mxCell id="FkXduTycxBEro7HCxzzV-29" value="" style="ellipse;whiteSpace=wrap;html=1;aspect=fixed;fillColor=#004C99;" vertex="1" parent="1">
          <mxGeometry x="126.14999999999964" y="372.43999999999977" width="20" height="20" as="geometry" />
        </mxCell>
        <mxCell id="FkXduTycxBEro7HCxzzV-30" value="" style="ellipse;whiteSpace=wrap;html=1;aspect=fixed;fillColor=#007FFF;" vertex="1" parent="1">
          <mxGeometry x="126.14999999999873" y="394.99999999999994" width="20" height="20" as="geometry" />
        </mxCell>
        <mxCell id="FkXduTycxBEro7HCxzzV-31" value="" style="ellipse;whiteSpace=wrap;html=1;aspect=fixed;fillColor=#66B2FF;" vertex="1" parent="1">
          <mxGeometry x="126.14999999999873" y="419.2499999999997" width="20" height="20" as="geometry" />
        </mxCell>
        <mxCell id="FkXduTycxBEro7HCxzzV-32" value="" style="ellipse;whiteSpace=wrap;html=1;aspect=fixed;fillColor=#33FFFF;" vertex="1" parent="1">
          <mxGeometry x="126.14999999999964" y="464.19999999999976" width="20" height="20" as="geometry" />
        </mxCell>
        <mxCell id="FkXduTycxBEro7HCxzzV-33" value="" style="ellipse;whiteSpace=wrap;html=1;aspect=fixed;fillColor=#CCFFFF;" vertex="1" parent="1">
          <mxGeometry x="126.14999999999964" y="487.74" width="20" height="20" as="geometry" />
        </mxCell>
        <mxCell id="FkXduTycxBEro7HCxzzV-34" value="" style="ellipse;whiteSpace=wrap;html=1;aspect=fixed;fillColor=#FFFFFF;" vertex="1" parent="1">
          <mxGeometry x="126.06999999999971" y="511.29999999999995" width="20" height="20" as="geometry" />
        </mxCell>
        <mxCell id="FkXduTycxBEro7HCxzzV-35" value="" style="endArrow=none;dashed=1;html=1;dashPattern=1 3;strokeWidth=2;rounded=0;" edge="1" parent="1">
          <mxGeometry width="50" height="50" relative="1" as="geometry">
            <mxPoint x="136.1899999999996" y="461.2999999999999" as="sourcePoint" />
            <mxPoint x="136.1899999999996" y="441.2999999999999" as="targetPoint" />
          </mxGeometry>
        </mxCell>
        <mxCell id="FkXduTycxBEro7HCxzzV-36" value="" style="endArrow=none;dashed=1;html=1;rounded=0;exitX=-0.008;exitY=0.449;exitDx=0;exitDy=0;exitPerimeter=0;" edge="1" parent="1">
          <mxGeometry width="50" height="50" relative="1" as="geometry">
            <mxPoint x="115.5719999999992" y="450.50000000000017" as="sourcePoint" />
            <mxPoint x="176.85999999999967" y="450.73999999999995" as="targetPoint" />
          </mxGeometry>
        </mxCell>
        <mxCell id="FkXduTycxBEro7HCxzzV-37" value="" style="shape=curlyBracket;whiteSpace=wrap;html=1;rounded=1;flipH=1;labelPosition=right;verticalLabelPosition=middle;align=left;verticalAlign=middle;" vertex="1" parent="1">
          <mxGeometry x="157.5699999999997" y="368.09999999999985" width="20" height="76.9" as="geometry" />
        </mxCell>
        <mxCell id="FkXduTycxBEro7HCxzzV-38" value="" style="shape=curlyBracket;whiteSpace=wrap;html=1;rounded=1;flipH=1;labelPosition=right;verticalLabelPosition=middle;align=left;verticalAlign=middle;" vertex="1" parent="1">
          <mxGeometry x="157.5699999999997" y="464.99999999999994" width="20" height="70" as="geometry" />
        </mxCell>
        <mxCell id="FkXduTycxBEro7HCxzzV-39" value="&lt;font style=&quot;font-size: 16px;&quot;&gt;\(\psi\)&lt;/font&gt;" style="text;html=1;align=center;verticalAlign=middle;whiteSpace=wrap;rounded=0;" vertex="1" parent="1">
          <mxGeometry x="180.6678350515458" y="443.98500000000007" width="12.371134020618555" height="12.5" as="geometry" />
        </mxCell>
        <mxCell id="FkXduTycxBEro7HCxzzV-40" value="&lt;font style=&quot;font-size: 16px;&quot;&gt;流行项目&lt;/font&gt;" style="text;html=1;align=center;verticalAlign=middle;whiteSpace=wrap;rounded=0;" vertex="1" parent="1">
          <mxGeometry x="170" y="388.61999999999995" width="71" height="30" as="geometry" />
        </mxCell>
        <mxCell id="FkXduTycxBEro7HCxzzV-41" value="&lt;font style=&quot;font-size: 16px;&quot;&gt;非流行项目&lt;/font&gt;" style="text;html=1;align=center;verticalAlign=middle;whiteSpace=wrap;rounded=0;" vertex="1" parent="1">
          <mxGeometry x="177.5699999999997" y="484.1999999999998" width="83.43" height="30" as="geometry" />
        </mxCell>
        <mxCell id="FkXduTycxBEro7HCxzzV-42" style="edgeStyle=orthogonalEdgeStyle;rounded=0;orthogonalLoop=1;jettySize=auto;html=1;" edge="1" parent="1">
          <mxGeometry relative="1" as="geometry">
            <mxPoint x="194.82999999999993" y="302.7399999999998" as="sourcePoint" />
            <mxPoint x="194.82999999999993" y="352.7399999999997" as="targetPoint" />
          </mxGeometry>
        </mxCell>
        <mxCell id="FkXduTycxBEro7HCxzzV-43" value="&lt;span style=&quot;font-size: 16px;&quot;&gt;流行度排序&lt;/span&gt;" style="text;html=1;align=center;verticalAlign=middle;whiteSpace=wrap;rounded=0;" vertex="1" parent="1">
          <mxGeometry x="198.5699999999997" y="312.7399999999997" width="60" height="30" as="geometry" />
        </mxCell>
        <mxCell id="FkXduTycxBEro7HCxzzV-44" value="" style="endArrow=open;html=1;rounded=0;dashed=1;endFill=0;" edge="1" parent="1">
          <mxGeometry width="50" height="50" relative="1" as="geometry">
            <mxPoint x="95.17000000000007" y="364.50999999999993" as="sourcePoint" />
            <mxPoint x="95" y="535" as="targetPoint" />
          </mxGeometry>
        </mxCell>
        <mxCell id="FkXduTycxBEro7HCxzzV-45" value="降序" style="edgeLabel;html=1;align=center;verticalAlign=middle;resizable=0;points=[];fontSize=13;" vertex="1" connectable="0" parent="FkXduTycxBEro7HCxzzV-44">
          <mxGeometry x="-0.143" y="-1" relative="1" as="geometry">
            <mxPoint as="offset" />
          </mxGeometry>
        </mxCell>
        <mxCell id="FkXduTycxBEro7HCxzzV-46" value="" style="endArrow=classic;html=1;rounded=0;" edge="1" parent="1">
          <mxGeometry width="50" height="50" relative="1" as="geometry">
            <mxPoint x="202.98999999999978" y="451.5800000000001" as="sourcePoint" />
            <mxPoint x="242.98999999999978" y="451.5800000000001" as="targetPoint" />
          </mxGeometry>
        </mxCell>
        <mxCell id="FkXduTycxBEro7HCxzzV-47" value="&lt;font style=&quot;font-size: 16px;&quot;&gt;GCN&lt;/font&gt;" style="text;html=1;align=center;verticalAlign=middle;resizable=0;points=[];autosize=1;strokeColor=none;fillColor=none;" vertex="1" parent="1">
          <mxGeometry x="190" y="425.0000000000004" width="60" height="30" as="geometry" />
        </mxCell>
        <mxCell id="FkXduTycxBEro7HCxzzV-48" value="" style="group;fillColor=#dae8fc;strokeColor=#6c8ebf;rotation=90;" vertex="1" connectable="0" parent="1">
          <mxGeometry x="235" y="443.9899999999997" width="60" height="20" as="geometry" />
        </mxCell>
        <mxCell id="FkXduTycxBEro7HCxzzV-49" value="" style="rounded=0;whiteSpace=wrap;html=1;fillColor=#004C99;strokeColor=#6c8ebf;rotation=90;" vertex="1" parent="FkXduTycxBEro7HCxzzV-48">
          <mxGeometry x="20" y="-20" width="20" height="20" as="geometry" />
        </mxCell>
        <mxCell id="FkXduTycxBEro7HCxzzV-50" value="" style="rounded=0;whiteSpace=wrap;html=1;fillColor=#66B2FF;strokeColor=#6c8ebf;rotation=90;" vertex="1" parent="FkXduTycxBEro7HCxzzV-48">
          <mxGeometry x="20" width="20" height="20" as="geometry" />
        </mxCell>
        <mxCell id="FkXduTycxBEro7HCxzzV-51" value="" style="rounded=0;whiteSpace=wrap;html=1;fillColor=#f5f5f5;fontColor=#333333;strokeColor=#666666;rotation=90;" vertex="1" parent="FkXduTycxBEro7HCxzzV-48">
          <mxGeometry x="20" y="20" width="20" height="20" as="geometry" />
        </mxCell>
        <mxCell id="FkXduTycxBEro7HCxzzV-52" value="&lt;font style=&quot;font-size: 16px;&quot;&gt;\(e_{i}\)&lt;/font&gt;" style="text;html=1;align=center;verticalAlign=middle;whiteSpace=wrap;rounded=0;" vertex="1" parent="1">
          <mxGeometry x="237.5" y="394.99999999999994" width="55" height="25.8" as="geometry" />
        </mxCell>
        <mxCell id="FkXduTycxBEro7HCxzzV-488" style="edgeStyle=orthogonalEdgeStyle;rounded=0;orthogonalLoop=1;jettySize=auto;html=1;exitX=0.5;exitY=1;exitDx=0;exitDy=0;" edge="1" parent="1" source="FkXduTycxBEro7HCxzzV-57">
          <mxGeometry relative="1" as="geometry">
            <mxPoint x="606" y="370" as="targetPoint" />
          </mxGeometry>
        </mxCell>
        <mxCell id="FkXduTycxBEro7HCxzzV-492" style="edgeStyle=orthogonalEdgeStyle;rounded=0;orthogonalLoop=1;jettySize=auto;html=1;exitX=0.5;exitY=1;exitDx=0;exitDy=0;entryX=0;entryY=0.5;entryDx=0;entryDy=0;" edge="1" parent="1" source="FkXduTycxBEro7HCxzzV-57" target="FkXduTycxBEro7HCxzzV-245">
          <mxGeometry relative="1" as="geometry">
            <Array as="points">
              <mxPoint x="606" y="340" />
              <mxPoint x="560" y="340" />
              <mxPoint x="560" y="493" />
            </Array>
          </mxGeometry>
        </mxCell>
        <mxCell id="FkXduTycxBEro7HCxzzV-57" value="&lt;font style=&quot;font-size: 16px;&quot;&gt;\(e_{i}^{view}\)&lt;/font&gt;" style="text;html=1;align=center;verticalAlign=middle;whiteSpace=wrap;rounded=0;" vertex="1" parent="1">
          <mxGeometry x="578.75" y="219.1" width="55" height="25.8" as="geometry" />
        </mxCell>
        <mxCell id="FkXduTycxBEro7HCxzzV-58" value="&lt;font style=&quot;font-size: 20px;&quot;&gt;Initialization&lt;/font&gt;" style="rounded=1;whiteSpace=wrap;html=1;" vertex="1" parent="1">
          <mxGeometry x="124.5" y="80" width="141" height="40" as="geometry" />
        </mxCell>
        <mxCell id="FkXduTycxBEro7HCxzzV-104" value="&lt;font style=&quot;font-size: 18px;&quot;&gt;LightGCN&lt;/font&gt;" style="text;html=1;align=center;verticalAlign=middle;whiteSpace=wrap;rounded=0;" vertex="1" parent="1">
          <mxGeometry x="470" y="293" width="60" height="30" as="geometry" />
        </mxCell>
        <mxCell id="FkXduTycxBEro7HCxzzV-107" value="" style="rounded=1;whiteSpace=wrap;html=1;dashed=1;strokeColor=#CCCCCC;" vertex="1" parent="1">
          <mxGeometry x="675" y="120" width="160" height="200" as="geometry" />
        </mxCell>
        <mxCell id="FkXduTycxBEro7HCxzzV-108" value="" style="group" vertex="1" connectable="0" parent="1">
          <mxGeometry x="705" y="135" width="120" height="118" as="geometry" />
        </mxCell>
        <mxCell id="FkXduTycxBEro7HCxzzV-109" value="" style="rounded=1;whiteSpace=wrap;html=1;fillColor=#F5F5F5;strokeColor=#d6b656;gradientColor=#FFDF97;" vertex="1" parent="FkXduTycxBEro7HCxzzV-108">
          <mxGeometry x="22.702702702702695" y="12.931506849315067" width="97.29729729729728" height="105.06849315068494" as="geometry" />
        </mxCell>
        <mxCell id="FkXduTycxBEro7HCxzzV-110" value="" style="group" vertex="1" connectable="0" parent="FkXduTycxBEro7HCxzzV-108">
          <mxGeometry x="38.918918918918905" y="29.0958904109589" width="64.86486486486487" height="80.82191780821917" as="geometry" />
        </mxCell>
        <mxCell id="FkXduTycxBEro7HCxzzV-111" style="rounded=0;orthogonalLoop=1;jettySize=auto;html=1;exitX=1;exitY=0.5;exitDx=0;exitDy=0;entryX=0;entryY=0.5;entryDx=0;entryDy=0;endArrow=none;endFill=0;strokeColor=#808080;strokeWidth=0.5;" edge="1" parent="FkXduTycxBEro7HCxzzV-110" source="FkXduTycxBEro7HCxzzV-114" target="FkXduTycxBEro7HCxzzV-115">
          <mxGeometry relative="1" as="geometry" />
        </mxCell>
        <mxCell id="FkXduTycxBEro7HCxzzV-112" style="rounded=0;orthogonalLoop=1;jettySize=auto;html=1;exitX=1;exitY=0.5;exitDx=0;exitDy=0;entryX=0;entryY=0.5;entryDx=0;entryDy=0;strokeColor=#808080;align=center;verticalAlign=middle;fontFamily=Helvetica;fontSize=11;fontColor=default;labelBackgroundColor=default;endArrow=none;endFill=0;strokeWidth=0.5;" edge="1" parent="FkXduTycxBEro7HCxzzV-110" source="FkXduTycxBEro7HCxzzV-114" target="FkXduTycxBEro7HCxzzV-116">
          <mxGeometry relative="1" as="geometry" />
        </mxCell>
        <mxCell id="FkXduTycxBEro7HCxzzV-113" style="rounded=0;orthogonalLoop=1;jettySize=auto;html=1;exitX=1;exitY=0.5;exitDx=0;exitDy=0;entryX=0;entryY=0.5;entryDx=0;entryDy=0;strokeColor=#808080;align=center;verticalAlign=middle;fontFamily=Helvetica;fontSize=11;fontColor=default;labelBackgroundColor=default;endArrow=none;endFill=0;strokeWidth=0.5;" edge="1" parent="FkXduTycxBEro7HCxzzV-110" source="FkXduTycxBEro7HCxzzV-114" target="FkXduTycxBEro7HCxzzV-117">
          <mxGeometry relative="1" as="geometry" />
        </mxCell>
        <mxCell id="FkXduTycxBEro7HCxzzV-114" value="" style="ellipse;whiteSpace=wrap;html=1;aspect=fixed;fillColor=#dae8fc;strokeColor=#6c8ebf;" vertex="1" parent="FkXduTycxBEro7HCxzzV-110">
          <mxGeometry y="18.14333603817466" width="16.463162087666312" height="16.463162087666312" as="geometry" />
        </mxCell>
        <mxCell id="FkXduTycxBEro7HCxzzV-115" value="" style="ellipse;whiteSpace=wrap;html=1;aspect=fixed;fillColor=#f5f5f5;strokeColor=#666666;fontColor=#333333;" vertex="1" parent="FkXduTycxBEro7HCxzzV-110">
          <mxGeometry x="46.09539593483496" width="16.463162087666312" height="16.463162087666312" as="geometry" />
        </mxCell>
        <mxCell id="FkXduTycxBEro7HCxzzV-116" value="" style="ellipse;whiteSpace=wrap;html=1;aspect=fixed;fillColor=#f5f5f5;strokeColor=#666666;fontColor=#333333;" vertex="1" parent="FkXduTycxBEro7HCxzzV-110">
          <mxGeometry x="46.09539593483496" y="30.466551186853014" width="16.463162087666312" height="16.463162087666312" as="geometry" />
        </mxCell>
        <mxCell id="FkXduTycxBEro7HCxzzV-117" value="" style="ellipse;whiteSpace=wrap;html=1;aspect=fixed;fillColor=#f5f5f5;strokeColor=#666666;fontColor=#333333;" vertex="1" parent="FkXduTycxBEro7HCxzzV-110">
          <mxGeometry x="46.09539593483496" y="62.68507753942167" width="16.463162087666312" height="16.463162087666312" as="geometry" />
        </mxCell>
        <mxCell id="FkXduTycxBEro7HCxzzV-118" style="rounded=0;orthogonalLoop=1;jettySize=auto;html=1;exitX=1;exitY=0.5;exitDx=0;exitDy=0;entryX=0;entryY=0.5;entryDx=0;entryDy=0;strokeColor=#808080;align=center;verticalAlign=middle;fontFamily=Helvetica;fontSize=11;fontColor=default;labelBackgroundColor=default;endArrow=none;endFill=0;strokeWidth=0.5;" edge="1" parent="FkXduTycxBEro7HCxzzV-110" source="FkXduTycxBEro7HCxzzV-120" target="FkXduTycxBEro7HCxzzV-115">
          <mxGeometry relative="1" as="geometry" />
        </mxCell>
        <mxCell id="FkXduTycxBEro7HCxzzV-119" style="rounded=0;orthogonalLoop=1;jettySize=auto;html=1;exitX=1;exitY=0.5;exitDx=0;exitDy=0;entryX=0;entryY=0.5;entryDx=0;entryDy=0;strokeColor=#808080;align=center;verticalAlign=middle;fontFamily=Helvetica;fontSize=11;fontColor=default;labelBackgroundColor=default;endArrow=none;endFill=0;strokeWidth=0.5;" edge="1" parent="FkXduTycxBEro7HCxzzV-110" source="FkXduTycxBEro7HCxzzV-120" target="FkXduTycxBEro7HCxzzV-116">
          <mxGeometry relative="1" as="geometry" />
        </mxCell>
        <mxCell id="FkXduTycxBEro7HCxzzV-120" value="" style="ellipse;whiteSpace=wrap;html=1;aspect=fixed;fillColor=#dae8fc;strokeColor=#6c8ebf;" vertex="1" parent="FkXduTycxBEro7HCxzzV-110">
          <mxGeometry y="48.609887225027585" width="16.463162087666312" height="16.463162087666312" as="geometry" />
        </mxCell>
        <mxCell id="FkXduTycxBEro7HCxzzV-121" value="&lt;font style=&quot;font-size: 18px;&quot;&gt;L=3&lt;/font&gt;" style="text;html=1;align=center;verticalAlign=middle;whiteSpace=wrap;rounded=0;" vertex="1" parent="FkXduTycxBEro7HCxzzV-108">
          <mxGeometry width="97.29729729729728" height="48.49315068493151" as="geometry" />
        </mxCell>
        <mxCell id="FkXduTycxBEro7HCxzzV-122" value="" style="group" vertex="1" connectable="0" parent="1">
          <mxGeometry x="685" y="155" width="120" height="118" as="geometry" />
        </mxCell>
        <mxCell id="FkXduTycxBEro7HCxzzV-123" value="" style="rounded=1;whiteSpace=wrap;html=1;fillColor=#F5F5F5;strokeColor=#d6b656;gradientColor=#FFDF97;" vertex="1" parent="FkXduTycxBEro7HCxzzV-122">
          <mxGeometry x="22.702702702702695" y="12.931506849315067" width="97.29729729729728" height="105.06849315068494" as="geometry" />
        </mxCell>
        <mxCell id="FkXduTycxBEro7HCxzzV-124" value="" style="group" vertex="1" connectable="0" parent="FkXduTycxBEro7HCxzzV-122">
          <mxGeometry x="38.918918918918905" y="29.0958904109589" width="64.86486486486487" height="80.82191780821917" as="geometry" />
        </mxCell>
        <mxCell id="FkXduTycxBEro7HCxzzV-125" style="rounded=0;orthogonalLoop=1;jettySize=auto;html=1;exitX=1;exitY=0.5;exitDx=0;exitDy=0;entryX=0;entryY=0.5;entryDx=0;entryDy=0;endArrow=none;endFill=0;strokeColor=#808080;strokeWidth=0.5;" edge="1" parent="FkXduTycxBEro7HCxzzV-124" source="FkXduTycxBEro7HCxzzV-128" target="FkXduTycxBEro7HCxzzV-129">
          <mxGeometry relative="1" as="geometry" />
        </mxCell>
        <mxCell id="FkXduTycxBEro7HCxzzV-126" style="rounded=0;orthogonalLoop=1;jettySize=auto;html=1;exitX=1;exitY=0.5;exitDx=0;exitDy=0;entryX=0;entryY=0.5;entryDx=0;entryDy=0;strokeColor=#808080;align=center;verticalAlign=middle;fontFamily=Helvetica;fontSize=11;fontColor=default;labelBackgroundColor=default;endArrow=none;endFill=0;strokeWidth=0.5;" edge="1" parent="FkXduTycxBEro7HCxzzV-124" source="FkXduTycxBEro7HCxzzV-128" target="FkXduTycxBEro7HCxzzV-130">
          <mxGeometry relative="1" as="geometry" />
        </mxCell>
        <mxCell id="FkXduTycxBEro7HCxzzV-127" style="rounded=0;orthogonalLoop=1;jettySize=auto;html=1;exitX=1;exitY=0.5;exitDx=0;exitDy=0;entryX=0;entryY=0.5;entryDx=0;entryDy=0;strokeColor=#808080;align=center;verticalAlign=middle;fontFamily=Helvetica;fontSize=11;fontColor=default;labelBackgroundColor=default;endArrow=none;endFill=0;strokeWidth=0.5;" edge="1" parent="FkXduTycxBEro7HCxzzV-124" source="FkXduTycxBEro7HCxzzV-128" target="FkXduTycxBEro7HCxzzV-131">
          <mxGeometry relative="1" as="geometry" />
        </mxCell>
        <mxCell id="FkXduTycxBEro7HCxzzV-128" value="" style="ellipse;whiteSpace=wrap;html=1;aspect=fixed;fillColor=#dae8fc;strokeColor=#6c8ebf;" vertex="1" parent="FkXduTycxBEro7HCxzzV-124">
          <mxGeometry y="18.14333603817466" width="16.463162087666312" height="16.463162087666312" as="geometry" />
        </mxCell>
        <mxCell id="FkXduTycxBEro7HCxzzV-129" value="" style="ellipse;whiteSpace=wrap;html=1;aspect=fixed;fillColor=#f5f5f5;strokeColor=#666666;fontColor=#333333;" vertex="1" parent="FkXduTycxBEro7HCxzzV-124">
          <mxGeometry x="46.09539593483496" width="16.463162087666312" height="16.463162087666312" as="geometry" />
        </mxCell>
        <mxCell id="FkXduTycxBEro7HCxzzV-130" value="" style="ellipse;whiteSpace=wrap;html=1;aspect=fixed;fillColor=#f5f5f5;strokeColor=#666666;fontColor=#333333;" vertex="1" parent="FkXduTycxBEro7HCxzzV-124">
          <mxGeometry x="46.09539593483496" y="30.466551186853014" width="16.463162087666312" height="16.463162087666312" as="geometry" />
        </mxCell>
        <mxCell id="FkXduTycxBEro7HCxzzV-131" value="" style="ellipse;whiteSpace=wrap;html=1;aspect=fixed;fillColor=#f5f5f5;strokeColor=#666666;fontColor=#333333;" vertex="1" parent="FkXduTycxBEro7HCxzzV-124">
          <mxGeometry x="46.09539593483496" y="62.68507753942167" width="16.463162087666312" height="16.463162087666312" as="geometry" />
        </mxCell>
        <mxCell id="FkXduTycxBEro7HCxzzV-132" style="rounded=0;orthogonalLoop=1;jettySize=auto;html=1;exitX=1;exitY=0.5;exitDx=0;exitDy=0;entryX=0;entryY=0.5;entryDx=0;entryDy=0;strokeColor=#808080;align=center;verticalAlign=middle;fontFamily=Helvetica;fontSize=11;fontColor=default;labelBackgroundColor=default;endArrow=none;endFill=0;strokeWidth=0.5;" edge="1" parent="FkXduTycxBEro7HCxzzV-124" source="FkXduTycxBEro7HCxzzV-134" target="FkXduTycxBEro7HCxzzV-129">
          <mxGeometry relative="1" as="geometry" />
        </mxCell>
        <mxCell id="FkXduTycxBEro7HCxzzV-133" style="rounded=0;orthogonalLoop=1;jettySize=auto;html=1;exitX=1;exitY=0.5;exitDx=0;exitDy=0;entryX=0;entryY=0.5;entryDx=0;entryDy=0;strokeColor=#808080;align=center;verticalAlign=middle;fontFamily=Helvetica;fontSize=11;fontColor=default;labelBackgroundColor=default;endArrow=none;endFill=0;strokeWidth=0.5;" edge="1" parent="FkXduTycxBEro7HCxzzV-124" source="FkXduTycxBEro7HCxzzV-134" target="FkXduTycxBEro7HCxzzV-130">
          <mxGeometry relative="1" as="geometry" />
        </mxCell>
        <mxCell id="FkXduTycxBEro7HCxzzV-134" value="" style="ellipse;whiteSpace=wrap;html=1;aspect=fixed;fillColor=#dae8fc;strokeColor=#6c8ebf;" vertex="1" parent="FkXduTycxBEro7HCxzzV-124">
          <mxGeometry y="48.609887225027585" width="16.463162087666312" height="16.463162087666312" as="geometry" />
        </mxCell>
        <mxCell id="FkXduTycxBEro7HCxzzV-135" value="&lt;font style=&quot;font-size: 18px;&quot;&gt;L=2&lt;/font&gt;" style="text;html=1;align=center;verticalAlign=middle;whiteSpace=wrap;rounded=0;" vertex="1" parent="FkXduTycxBEro7HCxzzV-122">
          <mxGeometry width="97.29729729729728" height="48.49315068493151" as="geometry" />
        </mxCell>
        <mxCell id="FkXduTycxBEro7HCxzzV-136" value="" style="group" vertex="1" connectable="0" parent="1">
          <mxGeometry x="665" y="175" width="120" height="118" as="geometry" />
        </mxCell>
        <mxCell id="FkXduTycxBEro7HCxzzV-137" value="" style="rounded=1;whiteSpace=wrap;html=1;fillColor=#F5F5F5;strokeColor=#d6b656;gradientColor=#FFDF97;" vertex="1" parent="FkXduTycxBEro7HCxzzV-136">
          <mxGeometry x="22.702702702702695" y="12.931506849315067" width="97.29729729729728" height="105.06849315068494" as="geometry" />
        </mxCell>
        <mxCell id="FkXduTycxBEro7HCxzzV-138" value="" style="group" vertex="1" connectable="0" parent="FkXduTycxBEro7HCxzzV-136">
          <mxGeometry x="38.918918918918905" y="29.0958904109589" width="64.86486486486487" height="80.82191780821917" as="geometry" />
        </mxCell>
        <mxCell id="FkXduTycxBEro7HCxzzV-139" style="rounded=0;orthogonalLoop=1;jettySize=auto;html=1;exitX=1;exitY=0.5;exitDx=0;exitDy=0;entryX=0;entryY=0.5;entryDx=0;entryDy=0;endArrow=none;endFill=0;strokeColor=#808080;strokeWidth=0.5;" edge="1" parent="FkXduTycxBEro7HCxzzV-138" source="FkXduTycxBEro7HCxzzV-142" target="FkXduTycxBEro7HCxzzV-143">
          <mxGeometry relative="1" as="geometry" />
        </mxCell>
        <mxCell id="FkXduTycxBEro7HCxzzV-140" style="rounded=0;orthogonalLoop=1;jettySize=auto;html=1;exitX=1;exitY=0.5;exitDx=0;exitDy=0;entryX=0;entryY=0.5;entryDx=0;entryDy=0;strokeColor=#808080;align=center;verticalAlign=middle;fontFamily=Helvetica;fontSize=11;fontColor=default;labelBackgroundColor=default;endArrow=none;endFill=0;strokeWidth=0.5;" edge="1" parent="FkXduTycxBEro7HCxzzV-138" source="FkXduTycxBEro7HCxzzV-142" target="FkXduTycxBEro7HCxzzV-144">
          <mxGeometry relative="1" as="geometry" />
        </mxCell>
        <mxCell id="FkXduTycxBEro7HCxzzV-141" style="rounded=0;orthogonalLoop=1;jettySize=auto;html=1;exitX=1;exitY=0.5;exitDx=0;exitDy=0;entryX=0;entryY=0.5;entryDx=0;entryDy=0;strokeColor=#808080;align=center;verticalAlign=middle;fontFamily=Helvetica;fontSize=11;fontColor=default;labelBackgroundColor=default;endArrow=none;endFill=0;strokeWidth=0.5;" edge="1" parent="FkXduTycxBEro7HCxzzV-138" source="FkXduTycxBEro7HCxzzV-142" target="FkXduTycxBEro7HCxzzV-145">
          <mxGeometry relative="1" as="geometry" />
        </mxCell>
        <mxCell id="FkXduTycxBEro7HCxzzV-142" value="" style="ellipse;whiteSpace=wrap;html=1;aspect=fixed;fillColor=#dae8fc;strokeColor=#6c8ebf;" vertex="1" parent="FkXduTycxBEro7HCxzzV-138">
          <mxGeometry y="18.14333603817466" width="16.463162087666312" height="16.463162087666312" as="geometry" />
        </mxCell>
        <mxCell id="FkXduTycxBEro7HCxzzV-143" value="" style="ellipse;whiteSpace=wrap;html=1;aspect=fixed;fillColor=#f5f5f5;strokeColor=#666666;fontColor=#333333;" vertex="1" parent="FkXduTycxBEro7HCxzzV-138">
          <mxGeometry x="46.09539593483496" width="16.463162087666312" height="16.463162087666312" as="geometry" />
        </mxCell>
        <mxCell id="FkXduTycxBEro7HCxzzV-144" value="" style="ellipse;whiteSpace=wrap;html=1;aspect=fixed;fillColor=#f5f5f5;strokeColor=#666666;fontColor=#333333;" vertex="1" parent="FkXduTycxBEro7HCxzzV-138">
          <mxGeometry x="46.09539593483496" y="30.466551186853014" width="16.463162087666312" height="16.463162087666312" as="geometry" />
        </mxCell>
        <mxCell id="FkXduTycxBEro7HCxzzV-145" value="" style="ellipse;whiteSpace=wrap;html=1;aspect=fixed;fillColor=#f5f5f5;strokeColor=#666666;fontColor=#333333;" vertex="1" parent="FkXduTycxBEro7HCxzzV-138">
          <mxGeometry x="46.09539593483496" y="62.68507753942167" width="16.463162087666312" height="16.463162087666312" as="geometry" />
        </mxCell>
        <mxCell id="FkXduTycxBEro7HCxzzV-146" style="rounded=0;orthogonalLoop=1;jettySize=auto;html=1;exitX=1;exitY=0.5;exitDx=0;exitDy=0;entryX=0;entryY=0.5;entryDx=0;entryDy=0;strokeColor=#808080;align=center;verticalAlign=middle;fontFamily=Helvetica;fontSize=11;fontColor=default;labelBackgroundColor=default;endArrow=none;endFill=0;strokeWidth=0.5;" edge="1" parent="FkXduTycxBEro7HCxzzV-138" source="FkXduTycxBEro7HCxzzV-148" target="FkXduTycxBEro7HCxzzV-143">
          <mxGeometry relative="1" as="geometry" />
        </mxCell>
        <mxCell id="FkXduTycxBEro7HCxzzV-147" style="rounded=0;orthogonalLoop=1;jettySize=auto;html=1;exitX=1;exitY=0.5;exitDx=0;exitDy=0;entryX=0;entryY=0.5;entryDx=0;entryDy=0;strokeColor=#808080;align=center;verticalAlign=middle;fontFamily=Helvetica;fontSize=11;fontColor=default;labelBackgroundColor=default;endArrow=none;endFill=0;strokeWidth=0.5;" edge="1" parent="FkXduTycxBEro7HCxzzV-138" source="FkXduTycxBEro7HCxzzV-148" target="FkXduTycxBEro7HCxzzV-144">
          <mxGeometry relative="1" as="geometry" />
        </mxCell>
        <mxCell id="FkXduTycxBEro7HCxzzV-148" value="" style="ellipse;whiteSpace=wrap;html=1;aspect=fixed;fillColor=#dae8fc;strokeColor=#6c8ebf;" vertex="1" parent="FkXduTycxBEro7HCxzzV-138">
          <mxGeometry y="48.609887225027585" width="16.463162087666312" height="16.463162087666312" as="geometry" />
        </mxCell>
        <mxCell id="FkXduTycxBEro7HCxzzV-149" value="&lt;font style=&quot;font-size: 18px;&quot;&gt;L=1&lt;/font&gt;" style="text;html=1;align=center;verticalAlign=middle;whiteSpace=wrap;rounded=0;" vertex="1" parent="FkXduTycxBEro7HCxzzV-136">
          <mxGeometry width="97.29729729729728" height="48.49315068493151" as="geometry" />
        </mxCell>
        <mxCell id="FkXduTycxBEro7HCxzzV-150" value="&lt;font style=&quot;font-size: 18px;&quot;&gt;LightGCN&lt;/font&gt;" style="text;html=1;align=center;verticalAlign=middle;whiteSpace=wrap;rounded=0;" vertex="1" parent="1">
          <mxGeometry x="725" y="293" width="60" height="30" as="geometry" />
        </mxCell>
        <mxCell id="FkXduTycxBEro7HCxzzV-152" value="" style="rounded=1;whiteSpace=wrap;html=1;dashed=1;strokeColor=#CCCCCC;" vertex="1" parent="1">
          <mxGeometry x="925" y="120" width="160" height="202" as="geometry" />
        </mxCell>
        <mxCell id="FkXduTycxBEro7HCxzzV-153" value="" style="group" vertex="1" connectable="0" parent="1">
          <mxGeometry x="955" y="135" width="120" height="118" as="geometry" />
        </mxCell>
        <mxCell id="FkXduTycxBEro7HCxzzV-154" value="" style="rounded=1;whiteSpace=wrap;html=1;fillColor=#F5F5F5;strokeColor=#EEB7D3;gradientColor=#EEB7D3;" vertex="1" parent="FkXduTycxBEro7HCxzzV-153">
          <mxGeometry x="22.702702702702695" y="12.931506849315067" width="97.29729729729728" height="105.06849315068494" as="geometry" />
        </mxCell>
        <mxCell id="FkXduTycxBEro7HCxzzV-155" value="" style="group" vertex="1" connectable="0" parent="FkXduTycxBEro7HCxzzV-153">
          <mxGeometry x="38.918918918918905" y="29.0958904109589" width="64.86486486486487" height="80.82191780821917" as="geometry" />
        </mxCell>
        <mxCell id="FkXduTycxBEro7HCxzzV-156" style="rounded=0;orthogonalLoop=1;jettySize=auto;html=1;exitX=1;exitY=0.5;exitDx=0;exitDy=0;entryX=0;entryY=0.5;entryDx=0;entryDy=0;endArrow=none;endFill=0;strokeColor=#808080;strokeWidth=0.5;" edge="1" parent="FkXduTycxBEro7HCxzzV-155" source="FkXduTycxBEro7HCxzzV-159" target="FkXduTycxBEro7HCxzzV-160">
          <mxGeometry relative="1" as="geometry" />
        </mxCell>
        <mxCell id="FkXduTycxBEro7HCxzzV-157" style="rounded=0;orthogonalLoop=1;jettySize=auto;html=1;exitX=1;exitY=0.5;exitDx=0;exitDy=0;entryX=0;entryY=0.5;entryDx=0;entryDy=0;strokeColor=#808080;align=center;verticalAlign=middle;fontFamily=Helvetica;fontSize=11;fontColor=default;labelBackgroundColor=default;endArrow=none;endFill=0;strokeWidth=0.5;" edge="1" parent="FkXduTycxBEro7HCxzzV-155" source="FkXduTycxBEro7HCxzzV-159" target="FkXduTycxBEro7HCxzzV-161">
          <mxGeometry relative="1" as="geometry" />
        </mxCell>
        <mxCell id="FkXduTycxBEro7HCxzzV-158" style="rounded=0;orthogonalLoop=1;jettySize=auto;html=1;exitX=1;exitY=0.5;exitDx=0;exitDy=0;entryX=0;entryY=0.5;entryDx=0;entryDy=0;strokeColor=#808080;align=center;verticalAlign=middle;fontFamily=Helvetica;fontSize=11;fontColor=default;labelBackgroundColor=default;endArrow=none;endFill=0;strokeWidth=0.5;" edge="1" parent="FkXduTycxBEro7HCxzzV-155" source="FkXduTycxBEro7HCxzzV-159" target="FkXduTycxBEro7HCxzzV-162">
          <mxGeometry relative="1" as="geometry" />
        </mxCell>
        <mxCell id="FkXduTycxBEro7HCxzzV-159" value="" style="ellipse;whiteSpace=wrap;html=1;aspect=fixed;fillColor=#dae8fc;strokeColor=#6c8ebf;" vertex="1" parent="FkXduTycxBEro7HCxzzV-155">
          <mxGeometry y="18.14333603817466" width="16.463162087666312" height="16.463162087666312" as="geometry" />
        </mxCell>
        <mxCell id="FkXduTycxBEro7HCxzzV-160" value="" style="ellipse;whiteSpace=wrap;html=1;aspect=fixed;fillColor=#f5f5f5;strokeColor=#666666;fontColor=#333333;" vertex="1" parent="FkXduTycxBEro7HCxzzV-155">
          <mxGeometry x="46.09539593483496" width="16.463162087666312" height="16.463162087666312" as="geometry" />
        </mxCell>
        <mxCell id="FkXduTycxBEro7HCxzzV-161" value="" style="ellipse;whiteSpace=wrap;html=1;aspect=fixed;fillColor=#f5f5f5;strokeColor=#666666;fontColor=#333333;" vertex="1" parent="FkXduTycxBEro7HCxzzV-155">
          <mxGeometry x="46.09539593483496" y="30.466551186853014" width="16.463162087666312" height="16.463162087666312" as="geometry" />
        </mxCell>
        <mxCell id="FkXduTycxBEro7HCxzzV-162" value="" style="ellipse;whiteSpace=wrap;html=1;aspect=fixed;fillColor=#f5f5f5;strokeColor=#666666;fontColor=#333333;" vertex="1" parent="FkXduTycxBEro7HCxzzV-155">
          <mxGeometry x="46.09539593483496" y="62.68507753942167" width="16.463162087666312" height="16.463162087666312" as="geometry" />
        </mxCell>
        <mxCell id="FkXduTycxBEro7HCxzzV-163" style="rounded=0;orthogonalLoop=1;jettySize=auto;html=1;exitX=1;exitY=0.5;exitDx=0;exitDy=0;entryX=0;entryY=0.5;entryDx=0;entryDy=0;strokeColor=#808080;align=center;verticalAlign=middle;fontFamily=Helvetica;fontSize=11;fontColor=default;labelBackgroundColor=default;endArrow=none;endFill=0;strokeWidth=0.5;" edge="1" parent="FkXduTycxBEro7HCxzzV-155" source="FkXduTycxBEro7HCxzzV-165" target="FkXduTycxBEro7HCxzzV-160">
          <mxGeometry relative="1" as="geometry" />
        </mxCell>
        <mxCell id="FkXduTycxBEro7HCxzzV-164" style="rounded=0;orthogonalLoop=1;jettySize=auto;html=1;exitX=1;exitY=0.5;exitDx=0;exitDy=0;entryX=0;entryY=0.5;entryDx=0;entryDy=0;strokeColor=#808080;align=center;verticalAlign=middle;fontFamily=Helvetica;fontSize=11;fontColor=default;labelBackgroundColor=default;endArrow=none;endFill=0;strokeWidth=0.5;" edge="1" parent="FkXduTycxBEro7HCxzzV-155" source="FkXduTycxBEro7HCxzzV-165" target="FkXduTycxBEro7HCxzzV-161">
          <mxGeometry relative="1" as="geometry" />
        </mxCell>
        <mxCell id="FkXduTycxBEro7HCxzzV-165" value="" style="ellipse;whiteSpace=wrap;html=1;aspect=fixed;fillColor=#dae8fc;strokeColor=#6c8ebf;" vertex="1" parent="FkXduTycxBEro7HCxzzV-155">
          <mxGeometry y="48.609887225027585" width="16.463162087666312" height="16.463162087666312" as="geometry" />
        </mxCell>
        <mxCell id="FkXduTycxBEro7HCxzzV-166" value="&lt;font style=&quot;font-size: 18px;&quot;&gt;L=3&lt;/font&gt;" style="text;html=1;align=center;verticalAlign=middle;whiteSpace=wrap;rounded=0;" vertex="1" parent="FkXduTycxBEro7HCxzzV-153">
          <mxGeometry width="97.29729729729728" height="48.49315068493151" as="geometry" />
        </mxCell>
        <mxCell id="FkXduTycxBEro7HCxzzV-167" value="" style="group" vertex="1" connectable="0" parent="1">
          <mxGeometry x="935" y="155" width="120" height="118" as="geometry" />
        </mxCell>
        <mxCell id="FkXduTycxBEro7HCxzzV-168" value="" style="rounded=1;whiteSpace=wrap;html=1;fillColor=#f5f5f5;strokeColor=#EEB7D3;gradientColor=#EEB7D3;" vertex="1" parent="FkXduTycxBEro7HCxzzV-167">
          <mxGeometry x="22.702702702702695" y="12.931506849315067" width="97.29729729729728" height="105.06849315068494" as="geometry" />
        </mxCell>
        <mxCell id="FkXduTycxBEro7HCxzzV-169" value="" style="group" vertex="1" connectable="0" parent="FkXduTycxBEro7HCxzzV-167">
          <mxGeometry x="38.918918918918905" y="29.0958904109589" width="64.86486486486487" height="80.82191780821917" as="geometry" />
        </mxCell>
        <mxCell id="FkXduTycxBEro7HCxzzV-170" style="rounded=0;orthogonalLoop=1;jettySize=auto;html=1;exitX=1;exitY=0.5;exitDx=0;exitDy=0;entryX=0;entryY=0.5;entryDx=0;entryDy=0;endArrow=none;endFill=0;strokeColor=#808080;strokeWidth=0.5;" edge="1" parent="FkXduTycxBEro7HCxzzV-169" source="FkXduTycxBEro7HCxzzV-173" target="FkXduTycxBEro7HCxzzV-174">
          <mxGeometry relative="1" as="geometry" />
        </mxCell>
        <mxCell id="FkXduTycxBEro7HCxzzV-171" style="rounded=0;orthogonalLoop=1;jettySize=auto;html=1;exitX=1;exitY=0.5;exitDx=0;exitDy=0;entryX=0;entryY=0.5;entryDx=0;entryDy=0;strokeColor=#808080;align=center;verticalAlign=middle;fontFamily=Helvetica;fontSize=11;fontColor=default;labelBackgroundColor=default;endArrow=none;endFill=0;strokeWidth=0.5;" edge="1" parent="FkXduTycxBEro7HCxzzV-169" source="FkXduTycxBEro7HCxzzV-173" target="FkXduTycxBEro7HCxzzV-175">
          <mxGeometry relative="1" as="geometry" />
        </mxCell>
        <mxCell id="FkXduTycxBEro7HCxzzV-172" style="rounded=0;orthogonalLoop=1;jettySize=auto;html=1;exitX=1;exitY=0.5;exitDx=0;exitDy=0;entryX=0;entryY=0.5;entryDx=0;entryDy=0;strokeColor=#808080;align=center;verticalAlign=middle;fontFamily=Helvetica;fontSize=11;fontColor=default;labelBackgroundColor=default;endArrow=none;endFill=0;strokeWidth=0.5;" edge="1" parent="FkXduTycxBEro7HCxzzV-169" source="FkXduTycxBEro7HCxzzV-173" target="FkXduTycxBEro7HCxzzV-176">
          <mxGeometry relative="1" as="geometry" />
        </mxCell>
        <mxCell id="FkXduTycxBEro7HCxzzV-173" value="" style="ellipse;whiteSpace=wrap;html=1;aspect=fixed;fillColor=#dae8fc;strokeColor=#6c8ebf;" vertex="1" parent="FkXduTycxBEro7HCxzzV-169">
          <mxGeometry y="18.14333603817466" width="16.463162087666312" height="16.463162087666312" as="geometry" />
        </mxCell>
        <mxCell id="FkXduTycxBEro7HCxzzV-174" value="" style="ellipse;whiteSpace=wrap;html=1;aspect=fixed;fillColor=#f5f5f5;strokeColor=#666666;fontColor=#333333;" vertex="1" parent="FkXduTycxBEro7HCxzzV-169">
          <mxGeometry x="46.09539593483496" width="16.463162087666312" height="16.463162087666312" as="geometry" />
        </mxCell>
        <mxCell id="FkXduTycxBEro7HCxzzV-175" value="" style="ellipse;whiteSpace=wrap;html=1;aspect=fixed;fillColor=#f5f5f5;strokeColor=#666666;fontColor=#333333;" vertex="1" parent="FkXduTycxBEro7HCxzzV-169">
          <mxGeometry x="46.09539593483496" y="30.466551186853014" width="16.463162087666312" height="16.463162087666312" as="geometry" />
        </mxCell>
        <mxCell id="FkXduTycxBEro7HCxzzV-176" value="" style="ellipse;whiteSpace=wrap;html=1;aspect=fixed;fillColor=#f5f5f5;strokeColor=#666666;fontColor=#333333;" vertex="1" parent="FkXduTycxBEro7HCxzzV-169">
          <mxGeometry x="46.09539593483496" y="62.68507753942167" width="16.463162087666312" height="16.463162087666312" as="geometry" />
        </mxCell>
        <mxCell id="FkXduTycxBEro7HCxzzV-177" style="rounded=0;orthogonalLoop=1;jettySize=auto;html=1;exitX=1;exitY=0.5;exitDx=0;exitDy=0;entryX=0;entryY=0.5;entryDx=0;entryDy=0;strokeColor=#808080;align=center;verticalAlign=middle;fontFamily=Helvetica;fontSize=11;fontColor=default;labelBackgroundColor=default;endArrow=none;endFill=0;strokeWidth=0.5;" edge="1" parent="FkXduTycxBEro7HCxzzV-169" source="FkXduTycxBEro7HCxzzV-179" target="FkXduTycxBEro7HCxzzV-174">
          <mxGeometry relative="1" as="geometry" />
        </mxCell>
        <mxCell id="FkXduTycxBEro7HCxzzV-178" style="rounded=0;orthogonalLoop=1;jettySize=auto;html=1;exitX=1;exitY=0.5;exitDx=0;exitDy=0;entryX=0;entryY=0.5;entryDx=0;entryDy=0;strokeColor=#808080;align=center;verticalAlign=middle;fontFamily=Helvetica;fontSize=11;fontColor=default;labelBackgroundColor=default;endArrow=none;endFill=0;strokeWidth=0.5;" edge="1" parent="FkXduTycxBEro7HCxzzV-169" source="FkXduTycxBEro7HCxzzV-179" target="FkXduTycxBEro7HCxzzV-175">
          <mxGeometry relative="1" as="geometry" />
        </mxCell>
        <mxCell id="FkXduTycxBEro7HCxzzV-179" value="" style="ellipse;whiteSpace=wrap;html=1;aspect=fixed;fillColor=#dae8fc;strokeColor=#6c8ebf;" vertex="1" parent="FkXduTycxBEro7HCxzzV-169">
          <mxGeometry y="48.609887225027585" width="16.463162087666312" height="16.463162087666312" as="geometry" />
        </mxCell>
        <mxCell id="FkXduTycxBEro7HCxzzV-180" value="&lt;font style=&quot;font-size: 18px;&quot;&gt;L=2&lt;/font&gt;" style="text;html=1;align=center;verticalAlign=middle;whiteSpace=wrap;rounded=0;" vertex="1" parent="FkXduTycxBEro7HCxzzV-167">
          <mxGeometry width="97.29729729729728" height="48.49315068493151" as="geometry" />
        </mxCell>
        <mxCell id="FkXduTycxBEro7HCxzzV-181" value="" style="group" vertex="1" connectable="0" parent="1">
          <mxGeometry x="910" y="175" width="120" height="118" as="geometry" />
        </mxCell>
        <mxCell id="FkXduTycxBEro7HCxzzV-182" value="" style="rounded=1;whiteSpace=wrap;html=1;fillColor=#f5f5f5;strokeColor=#EEB7D3;gradientColor=#EEB7D3;" vertex="1" parent="FkXduTycxBEro7HCxzzV-181">
          <mxGeometry x="27.702702702702695" y="12.931506849315067" width="97.29729729729728" height="105.06849315068494" as="geometry" />
        </mxCell>
        <mxCell id="FkXduTycxBEro7HCxzzV-183" value="" style="group" vertex="1" connectable="0" parent="FkXduTycxBEro7HCxzzV-181">
          <mxGeometry x="43.918918918918905" y="29.0958904109589" width="64.86486486486487" height="80.82191780821917" as="geometry" />
        </mxCell>
        <mxCell id="FkXduTycxBEro7HCxzzV-184" style="rounded=0;orthogonalLoop=1;jettySize=auto;html=1;exitX=1;exitY=0.5;exitDx=0;exitDy=0;entryX=0;entryY=0.5;entryDx=0;entryDy=0;endArrow=none;endFill=0;strokeColor=#808080;strokeWidth=0.5;" edge="1" parent="FkXduTycxBEro7HCxzzV-183" source="FkXduTycxBEro7HCxzzV-187" target="FkXduTycxBEro7HCxzzV-188">
          <mxGeometry relative="1" as="geometry" />
        </mxCell>
        <mxCell id="FkXduTycxBEro7HCxzzV-185" style="rounded=0;orthogonalLoop=1;jettySize=auto;html=1;exitX=1;exitY=0.5;exitDx=0;exitDy=0;entryX=0;entryY=0.5;entryDx=0;entryDy=0;strokeColor=#808080;align=center;verticalAlign=middle;fontFamily=Helvetica;fontSize=11;fontColor=default;labelBackgroundColor=default;endArrow=none;endFill=0;strokeWidth=0.5;" edge="1" parent="FkXduTycxBEro7HCxzzV-183" source="FkXduTycxBEro7HCxzzV-187" target="FkXduTycxBEro7HCxzzV-189">
          <mxGeometry relative="1" as="geometry" />
        </mxCell>
        <mxCell id="FkXduTycxBEro7HCxzzV-186" style="rounded=0;orthogonalLoop=1;jettySize=auto;html=1;exitX=1;exitY=0.5;exitDx=0;exitDy=0;entryX=0;entryY=0.5;entryDx=0;entryDy=0;strokeColor=#808080;align=center;verticalAlign=middle;fontFamily=Helvetica;fontSize=11;fontColor=default;labelBackgroundColor=default;endArrow=none;endFill=0;strokeWidth=0.5;" edge="1" parent="FkXduTycxBEro7HCxzzV-183" source="FkXduTycxBEro7HCxzzV-187" target="FkXduTycxBEro7HCxzzV-190">
          <mxGeometry relative="1" as="geometry" />
        </mxCell>
        <mxCell id="FkXduTycxBEro7HCxzzV-187" value="" style="ellipse;whiteSpace=wrap;html=1;aspect=fixed;fillColor=#dae8fc;strokeColor=#6c8ebf;" vertex="1" parent="FkXduTycxBEro7HCxzzV-183">
          <mxGeometry y="18.14333603817466" width="16.463162087666312" height="16.463162087666312" as="geometry" />
        </mxCell>
        <mxCell id="FkXduTycxBEro7HCxzzV-188" value="" style="ellipse;whiteSpace=wrap;html=1;aspect=fixed;fillColor=#f5f5f5;strokeColor=#666666;fontColor=#333333;" vertex="1" parent="FkXduTycxBEro7HCxzzV-183">
          <mxGeometry x="46.09539593483496" width="16.463162087666312" height="16.463162087666312" as="geometry" />
        </mxCell>
        <mxCell id="FkXduTycxBEro7HCxzzV-189" value="" style="ellipse;whiteSpace=wrap;html=1;aspect=fixed;fillColor=#f5f5f5;strokeColor=#666666;fontColor=#333333;" vertex="1" parent="FkXduTycxBEro7HCxzzV-183">
          <mxGeometry x="46.09539593483496" y="30.466551186853014" width="16.463162087666312" height="16.463162087666312" as="geometry" />
        </mxCell>
        <mxCell id="FkXduTycxBEro7HCxzzV-190" value="" style="ellipse;whiteSpace=wrap;html=1;aspect=fixed;fillColor=#f5f5f5;strokeColor=#666666;fontColor=#333333;" vertex="1" parent="FkXduTycxBEro7HCxzzV-183">
          <mxGeometry x="46.09539593483496" y="62.68507753942167" width="16.463162087666312" height="16.463162087666312" as="geometry" />
        </mxCell>
        <mxCell id="FkXduTycxBEro7HCxzzV-191" style="rounded=0;orthogonalLoop=1;jettySize=auto;html=1;exitX=1;exitY=0.5;exitDx=0;exitDy=0;entryX=0;entryY=0.5;entryDx=0;entryDy=0;strokeColor=#808080;align=center;verticalAlign=middle;fontFamily=Helvetica;fontSize=11;fontColor=default;labelBackgroundColor=default;endArrow=none;endFill=0;strokeWidth=0.5;" edge="1" parent="FkXduTycxBEro7HCxzzV-183" source="FkXduTycxBEro7HCxzzV-193" target="FkXduTycxBEro7HCxzzV-188">
          <mxGeometry relative="1" as="geometry" />
        </mxCell>
        <mxCell id="FkXduTycxBEro7HCxzzV-192" style="rounded=0;orthogonalLoop=1;jettySize=auto;html=1;exitX=1;exitY=0.5;exitDx=0;exitDy=0;entryX=0;entryY=0.5;entryDx=0;entryDy=0;strokeColor=#808080;align=center;verticalAlign=middle;fontFamily=Helvetica;fontSize=11;fontColor=default;labelBackgroundColor=default;endArrow=none;endFill=0;strokeWidth=0.5;" edge="1" parent="FkXduTycxBEro7HCxzzV-183" source="FkXduTycxBEro7HCxzzV-193" target="FkXduTycxBEro7HCxzzV-189">
          <mxGeometry relative="1" as="geometry" />
        </mxCell>
        <mxCell id="FkXduTycxBEro7HCxzzV-193" value="" style="ellipse;whiteSpace=wrap;html=1;aspect=fixed;fillColor=#dae8fc;strokeColor=#6c8ebf;" vertex="1" parent="FkXduTycxBEro7HCxzzV-183">
          <mxGeometry y="48.609887225027585" width="16.463162087666312" height="16.463162087666312" as="geometry" />
        </mxCell>
        <mxCell id="FkXduTycxBEro7HCxzzV-194" value="&lt;font style=&quot;font-size: 18px;&quot;&gt;L=1&lt;/font&gt;" style="text;html=1;align=center;verticalAlign=middle;whiteSpace=wrap;rounded=0;" vertex="1" parent="FkXduTycxBEro7HCxzzV-181">
          <mxGeometry width="97.29729729729728" height="48.49315068493151" as="geometry" />
        </mxCell>
        <mxCell id="FkXduTycxBEro7HCxzzV-195" value="&lt;font style=&quot;font-size: 18px;&quot;&gt;LightGCN&lt;/font&gt;" style="text;html=1;align=center;verticalAlign=middle;whiteSpace=wrap;rounded=0;" vertex="1" parent="1">
          <mxGeometry x="970" y="295" width="60" height="30" as="geometry" />
        </mxCell>
        <mxCell id="FkXduTycxBEro7HCxzzV-198" value="" style="group" vertex="1" connectable="0" parent="1">
          <mxGeometry x="405" y="135" width="160" height="158" as="geometry" />
        </mxCell>
        <mxCell id="FkXduTycxBEro7HCxzzV-89" value="" style="group" vertex="1" connectable="0" parent="FkXduTycxBEro7HCxzzV-198">
          <mxGeometry x="40" width="120" height="118" as="geometry" />
        </mxCell>
        <mxCell id="FkXduTycxBEro7HCxzzV-90" value="" style="rounded=1;whiteSpace=wrap;html=1;fillColor=#f5f5f5;strokeColor=#666666;gradientColor=#DBDAD3;" vertex="1" parent="FkXduTycxBEro7HCxzzV-89">
          <mxGeometry x="22.702702702702695" y="12.931506849315067" width="97.29729729729728" height="105.06849315068494" as="geometry" />
        </mxCell>
        <mxCell id="FkXduTycxBEro7HCxzzV-91" value="" style="group" vertex="1" connectable="0" parent="FkXduTycxBEro7HCxzzV-89">
          <mxGeometry x="38.918918918918905" y="29.0958904109589" width="64.86486486486487" height="80.82191780821917" as="geometry" />
        </mxCell>
        <mxCell id="FkXduTycxBEro7HCxzzV-92" style="rounded=0;orthogonalLoop=1;jettySize=auto;html=1;exitX=1;exitY=0.5;exitDx=0;exitDy=0;entryX=0;entryY=0.5;entryDx=0;entryDy=0;endArrow=none;endFill=0;strokeColor=#808080;strokeWidth=0.5;" edge="1" parent="FkXduTycxBEro7HCxzzV-91" source="FkXduTycxBEro7HCxzzV-95" target="FkXduTycxBEro7HCxzzV-96">
          <mxGeometry relative="1" as="geometry" />
        </mxCell>
        <mxCell id="FkXduTycxBEro7HCxzzV-93" style="rounded=0;orthogonalLoop=1;jettySize=auto;html=1;exitX=1;exitY=0.5;exitDx=0;exitDy=0;entryX=0;entryY=0.5;entryDx=0;entryDy=0;strokeColor=#808080;align=center;verticalAlign=middle;fontFamily=Helvetica;fontSize=11;fontColor=default;labelBackgroundColor=default;endArrow=none;endFill=0;strokeWidth=0.5;" edge="1" parent="FkXduTycxBEro7HCxzzV-91" source="FkXduTycxBEro7HCxzzV-95" target="FkXduTycxBEro7HCxzzV-97">
          <mxGeometry relative="1" as="geometry" />
        </mxCell>
        <mxCell id="FkXduTycxBEro7HCxzzV-94" style="rounded=0;orthogonalLoop=1;jettySize=auto;html=1;exitX=1;exitY=0.5;exitDx=0;exitDy=0;entryX=0;entryY=0.5;entryDx=0;entryDy=0;strokeColor=#808080;align=center;verticalAlign=middle;fontFamily=Helvetica;fontSize=11;fontColor=default;labelBackgroundColor=default;endArrow=none;endFill=0;strokeWidth=0.5;" edge="1" parent="FkXduTycxBEro7HCxzzV-91" source="FkXduTycxBEro7HCxzzV-95" target="FkXduTycxBEro7HCxzzV-98">
          <mxGeometry relative="1" as="geometry" />
        </mxCell>
        <mxCell id="FkXduTycxBEro7HCxzzV-95" value="" style="ellipse;whiteSpace=wrap;html=1;aspect=fixed;fillColor=#dae8fc;strokeColor=#6c8ebf;" vertex="1" parent="FkXduTycxBEro7HCxzzV-91">
          <mxGeometry y="18.14333603817466" width="16.463162087666312" height="16.463162087666312" as="geometry" />
        </mxCell>
        <mxCell id="FkXduTycxBEro7HCxzzV-96" value="" style="ellipse;whiteSpace=wrap;html=1;aspect=fixed;fillColor=#f5f5f5;strokeColor=#666666;fontColor=#333333;" vertex="1" parent="FkXduTycxBEro7HCxzzV-91">
          <mxGeometry x="46.09539593483496" width="16.463162087666312" height="16.463162087666312" as="geometry" />
        </mxCell>
        <mxCell id="FkXduTycxBEro7HCxzzV-97" value="" style="ellipse;whiteSpace=wrap;html=1;aspect=fixed;fillColor=#f5f5f5;strokeColor=#666666;fontColor=#333333;" vertex="1" parent="FkXduTycxBEro7HCxzzV-91">
          <mxGeometry x="46.09539593483496" y="30.466551186853014" width="16.463162087666312" height="16.463162087666312" as="geometry" />
        </mxCell>
        <mxCell id="FkXduTycxBEro7HCxzzV-98" value="" style="ellipse;whiteSpace=wrap;html=1;aspect=fixed;fillColor=#f5f5f5;strokeColor=#666666;fontColor=#333333;" vertex="1" parent="FkXduTycxBEro7HCxzzV-91">
          <mxGeometry x="46.09539593483496" y="62.68507753942167" width="16.463162087666312" height="16.463162087666312" as="geometry" />
        </mxCell>
        <mxCell id="FkXduTycxBEro7HCxzzV-99" style="rounded=0;orthogonalLoop=1;jettySize=auto;html=1;exitX=1;exitY=0.5;exitDx=0;exitDy=0;entryX=0;entryY=0.5;entryDx=0;entryDy=0;strokeColor=#808080;align=center;verticalAlign=middle;fontFamily=Helvetica;fontSize=11;fontColor=default;labelBackgroundColor=default;endArrow=none;endFill=0;strokeWidth=0.5;" edge="1" parent="FkXduTycxBEro7HCxzzV-91" source="FkXduTycxBEro7HCxzzV-101" target="FkXduTycxBEro7HCxzzV-96">
          <mxGeometry relative="1" as="geometry" />
        </mxCell>
        <mxCell id="FkXduTycxBEro7HCxzzV-100" style="rounded=0;orthogonalLoop=1;jettySize=auto;html=1;exitX=1;exitY=0.5;exitDx=0;exitDy=0;entryX=0;entryY=0.5;entryDx=0;entryDy=0;strokeColor=#808080;align=center;verticalAlign=middle;fontFamily=Helvetica;fontSize=11;fontColor=default;labelBackgroundColor=default;endArrow=none;endFill=0;strokeWidth=0.5;" edge="1" parent="FkXduTycxBEro7HCxzzV-91" source="FkXduTycxBEro7HCxzzV-101" target="FkXduTycxBEro7HCxzzV-97">
          <mxGeometry relative="1" as="geometry" />
        </mxCell>
        <mxCell id="FkXduTycxBEro7HCxzzV-101" value="" style="ellipse;whiteSpace=wrap;html=1;aspect=fixed;fillColor=#dae8fc;strokeColor=#6c8ebf;" vertex="1" parent="FkXduTycxBEro7HCxzzV-91">
          <mxGeometry y="48.609887225027585" width="16.463162087666312" height="16.463162087666312" as="geometry" />
        </mxCell>
        <mxCell id="FkXduTycxBEro7HCxzzV-102" value="&lt;font style=&quot;font-size: 18px;&quot;&gt;L=3&lt;/font&gt;" style="text;html=1;align=center;verticalAlign=middle;whiteSpace=wrap;rounded=0;" vertex="1" parent="FkXduTycxBEro7HCxzzV-89">
          <mxGeometry width="97.29729729729728" height="48.49315068493151" as="geometry" />
        </mxCell>
        <mxCell id="FkXduTycxBEro7HCxzzV-74" value="" style="group" vertex="1" connectable="0" parent="FkXduTycxBEro7HCxzzV-198">
          <mxGeometry x="20" y="20" width="120" height="118" as="geometry" />
        </mxCell>
        <mxCell id="FkXduTycxBEro7HCxzzV-75" value="" style="rounded=1;whiteSpace=wrap;html=1;fillColor=#f5f5f5;strokeColor=#666666;gradientColor=#DBDAD3;" vertex="1" parent="FkXduTycxBEro7HCxzzV-74">
          <mxGeometry x="22.702702702702695" y="12.931506849315067" width="97.29729729729728" height="105.06849315068494" as="geometry" />
        </mxCell>
        <mxCell id="FkXduTycxBEro7HCxzzV-76" value="" style="group" vertex="1" connectable="0" parent="FkXduTycxBEro7HCxzzV-74">
          <mxGeometry x="38.918918918918905" y="29.0958904109589" width="64.86486486486487" height="80.82191780821917" as="geometry" />
        </mxCell>
        <mxCell id="FkXduTycxBEro7HCxzzV-77" style="rounded=0;orthogonalLoop=1;jettySize=auto;html=1;exitX=1;exitY=0.5;exitDx=0;exitDy=0;entryX=0;entryY=0.5;entryDx=0;entryDy=0;endArrow=none;endFill=0;strokeColor=#808080;strokeWidth=0.5;" edge="1" parent="FkXduTycxBEro7HCxzzV-76" source="FkXduTycxBEro7HCxzzV-80" target="FkXduTycxBEro7HCxzzV-81">
          <mxGeometry relative="1" as="geometry" />
        </mxCell>
        <mxCell id="FkXduTycxBEro7HCxzzV-78" style="rounded=0;orthogonalLoop=1;jettySize=auto;html=1;exitX=1;exitY=0.5;exitDx=0;exitDy=0;entryX=0;entryY=0.5;entryDx=0;entryDy=0;strokeColor=#808080;align=center;verticalAlign=middle;fontFamily=Helvetica;fontSize=11;fontColor=default;labelBackgroundColor=default;endArrow=none;endFill=0;strokeWidth=0.5;" edge="1" parent="FkXduTycxBEro7HCxzzV-76" source="FkXduTycxBEro7HCxzzV-80" target="FkXduTycxBEro7HCxzzV-82">
          <mxGeometry relative="1" as="geometry" />
        </mxCell>
        <mxCell id="FkXduTycxBEro7HCxzzV-79" style="rounded=0;orthogonalLoop=1;jettySize=auto;html=1;exitX=1;exitY=0.5;exitDx=0;exitDy=0;entryX=0;entryY=0.5;entryDx=0;entryDy=0;strokeColor=#808080;align=center;verticalAlign=middle;fontFamily=Helvetica;fontSize=11;fontColor=default;labelBackgroundColor=default;endArrow=none;endFill=0;strokeWidth=0.5;" edge="1" parent="FkXduTycxBEro7HCxzzV-76" source="FkXduTycxBEro7HCxzzV-80" target="FkXduTycxBEro7HCxzzV-83">
          <mxGeometry relative="1" as="geometry" />
        </mxCell>
        <mxCell id="FkXduTycxBEro7HCxzzV-80" value="" style="ellipse;whiteSpace=wrap;html=1;aspect=fixed;fillColor=#dae8fc;strokeColor=#6c8ebf;" vertex="1" parent="FkXduTycxBEro7HCxzzV-76">
          <mxGeometry y="18.14333603817466" width="16.463162087666312" height="16.463162087666312" as="geometry" />
        </mxCell>
        <mxCell id="FkXduTycxBEro7HCxzzV-81" value="" style="ellipse;whiteSpace=wrap;html=1;aspect=fixed;fillColor=#f5f5f5;strokeColor=#666666;fontColor=#333333;" vertex="1" parent="FkXduTycxBEro7HCxzzV-76">
          <mxGeometry x="46.09539593483496" width="16.463162087666312" height="16.463162087666312" as="geometry" />
        </mxCell>
        <mxCell id="FkXduTycxBEro7HCxzzV-82" value="" style="ellipse;whiteSpace=wrap;html=1;aspect=fixed;fillColor=#f5f5f5;strokeColor=#666666;fontColor=#333333;" vertex="1" parent="FkXduTycxBEro7HCxzzV-76">
          <mxGeometry x="46.09539593483496" y="30.466551186853014" width="16.463162087666312" height="16.463162087666312" as="geometry" />
        </mxCell>
        <mxCell id="FkXduTycxBEro7HCxzzV-83" value="" style="ellipse;whiteSpace=wrap;html=1;aspect=fixed;fillColor=#f5f5f5;strokeColor=#666666;fontColor=#333333;" vertex="1" parent="FkXduTycxBEro7HCxzzV-76">
          <mxGeometry x="46.09539593483496" y="62.68507753942167" width="16.463162087666312" height="16.463162087666312" as="geometry" />
        </mxCell>
        <mxCell id="FkXduTycxBEro7HCxzzV-84" style="rounded=0;orthogonalLoop=1;jettySize=auto;html=1;exitX=1;exitY=0.5;exitDx=0;exitDy=0;entryX=0;entryY=0.5;entryDx=0;entryDy=0;strokeColor=#808080;align=center;verticalAlign=middle;fontFamily=Helvetica;fontSize=11;fontColor=default;labelBackgroundColor=default;endArrow=none;endFill=0;strokeWidth=0.5;" edge="1" parent="FkXduTycxBEro7HCxzzV-76" source="FkXduTycxBEro7HCxzzV-86" target="FkXduTycxBEro7HCxzzV-81">
          <mxGeometry relative="1" as="geometry" />
        </mxCell>
        <mxCell id="FkXduTycxBEro7HCxzzV-85" style="rounded=0;orthogonalLoop=1;jettySize=auto;html=1;exitX=1;exitY=0.5;exitDx=0;exitDy=0;entryX=0;entryY=0.5;entryDx=0;entryDy=0;strokeColor=#808080;align=center;verticalAlign=middle;fontFamily=Helvetica;fontSize=11;fontColor=default;labelBackgroundColor=default;endArrow=none;endFill=0;strokeWidth=0.5;" edge="1" parent="FkXduTycxBEro7HCxzzV-76" source="FkXduTycxBEro7HCxzzV-86" target="FkXduTycxBEro7HCxzzV-82">
          <mxGeometry relative="1" as="geometry" />
        </mxCell>
        <mxCell id="FkXduTycxBEro7HCxzzV-86" value="" style="ellipse;whiteSpace=wrap;html=1;aspect=fixed;fillColor=#dae8fc;strokeColor=#6c8ebf;" vertex="1" parent="FkXduTycxBEro7HCxzzV-76">
          <mxGeometry y="48.609887225027585" width="16.463162087666312" height="16.463162087666312" as="geometry" />
        </mxCell>
        <mxCell id="FkXduTycxBEro7HCxzzV-87" value="&lt;font style=&quot;font-size: 18px;&quot;&gt;L=2&lt;/font&gt;" style="text;html=1;align=center;verticalAlign=middle;whiteSpace=wrap;rounded=0;" vertex="1" parent="FkXduTycxBEro7HCxzzV-74">
          <mxGeometry width="97.29729729729728" height="48.49315068493151" as="geometry" />
        </mxCell>
        <mxCell id="FkXduTycxBEro7HCxzzV-73" value="" style="group" vertex="1" connectable="0" parent="FkXduTycxBEro7HCxzzV-198">
          <mxGeometry y="40" width="120" height="118" as="geometry" />
        </mxCell>
        <mxCell id="FkXduTycxBEro7HCxzzV-59" value="" style="rounded=1;whiteSpace=wrap;html=1;fillColor=#f5f5f5;strokeColor=#666666;gradientColor=#DBDAD3;" vertex="1" parent="FkXduTycxBEro7HCxzzV-73">
          <mxGeometry x="22.702702702702695" y="12.931506849315067" width="97.29729729729728" height="105.06849315068494" as="geometry" />
        </mxCell>
        <mxCell id="FkXduTycxBEro7HCxzzV-71" value="" style="group" vertex="1" connectable="0" parent="FkXduTycxBEro7HCxzzV-73">
          <mxGeometry x="38.918918918918905" y="29.0958904109589" width="64.86486486486487" height="80.82191780821917" as="geometry" />
        </mxCell>
        <mxCell id="FkXduTycxBEro7HCxzzV-66" style="rounded=0;orthogonalLoop=1;jettySize=auto;html=1;exitX=1;exitY=0.5;exitDx=0;exitDy=0;entryX=0;entryY=0.5;entryDx=0;entryDy=0;endArrow=none;endFill=0;strokeColor=#808080;strokeWidth=0.5;" edge="1" parent="FkXduTycxBEro7HCxzzV-71" source="FkXduTycxBEro7HCxzzV-60" target="FkXduTycxBEro7HCxzzV-61">
          <mxGeometry relative="1" as="geometry" />
        </mxCell>
        <mxCell id="FkXduTycxBEro7HCxzzV-67" style="rounded=0;orthogonalLoop=1;jettySize=auto;html=1;exitX=1;exitY=0.5;exitDx=0;exitDy=0;entryX=0;entryY=0.5;entryDx=0;entryDy=0;strokeColor=#808080;align=center;verticalAlign=middle;fontFamily=Helvetica;fontSize=11;fontColor=default;labelBackgroundColor=default;endArrow=none;endFill=0;strokeWidth=0.5;" edge="1" parent="FkXduTycxBEro7HCxzzV-71" source="FkXduTycxBEro7HCxzzV-60" target="FkXduTycxBEro7HCxzzV-63">
          <mxGeometry relative="1" as="geometry" />
        </mxCell>
        <mxCell id="FkXduTycxBEro7HCxzzV-68" style="rounded=0;orthogonalLoop=1;jettySize=auto;html=1;exitX=1;exitY=0.5;exitDx=0;exitDy=0;entryX=0;entryY=0.5;entryDx=0;entryDy=0;strokeColor=#808080;align=center;verticalAlign=middle;fontFamily=Helvetica;fontSize=11;fontColor=default;labelBackgroundColor=default;endArrow=none;endFill=0;strokeWidth=0.5;" edge="1" parent="FkXduTycxBEro7HCxzzV-71" source="FkXduTycxBEro7HCxzzV-60" target="FkXduTycxBEro7HCxzzV-64">
          <mxGeometry relative="1" as="geometry" />
        </mxCell>
        <mxCell id="FkXduTycxBEro7HCxzzV-60" value="" style="ellipse;whiteSpace=wrap;html=1;aspect=fixed;fillColor=#dae8fc;strokeColor=#6c8ebf;" vertex="1" parent="FkXduTycxBEro7HCxzzV-71">
          <mxGeometry y="18.14333603817466" width="16.463162087666312" height="16.463162087666312" as="geometry" />
        </mxCell>
        <mxCell id="FkXduTycxBEro7HCxzzV-61" value="" style="ellipse;whiteSpace=wrap;html=1;aspect=fixed;fillColor=#f5f5f5;strokeColor=#666666;fontColor=#333333;" vertex="1" parent="FkXduTycxBEro7HCxzzV-71">
          <mxGeometry x="46.09539593483496" width="16.463162087666312" height="16.463162087666312" as="geometry" />
        </mxCell>
        <mxCell id="FkXduTycxBEro7HCxzzV-63" value="" style="ellipse;whiteSpace=wrap;html=1;aspect=fixed;fillColor=#f5f5f5;strokeColor=#666666;fontColor=#333333;" vertex="1" parent="FkXduTycxBEro7HCxzzV-71">
          <mxGeometry x="46.09539593483496" y="30.466551186853014" width="16.463162087666312" height="16.463162087666312" as="geometry" />
        </mxCell>
        <mxCell id="FkXduTycxBEro7HCxzzV-64" value="" style="ellipse;whiteSpace=wrap;html=1;aspect=fixed;fillColor=#f5f5f5;strokeColor=#666666;fontColor=#333333;" vertex="1" parent="FkXduTycxBEro7HCxzzV-71">
          <mxGeometry x="46.09539593483496" y="62.68507753942167" width="16.463162087666312" height="16.463162087666312" as="geometry" />
        </mxCell>
        <mxCell id="FkXduTycxBEro7HCxzzV-69" style="rounded=0;orthogonalLoop=1;jettySize=auto;html=1;exitX=1;exitY=0.5;exitDx=0;exitDy=0;entryX=0;entryY=0.5;entryDx=0;entryDy=0;strokeColor=#808080;align=center;verticalAlign=middle;fontFamily=Helvetica;fontSize=11;fontColor=default;labelBackgroundColor=default;endArrow=none;endFill=0;strokeWidth=0.5;" edge="1" parent="FkXduTycxBEro7HCxzzV-71" source="FkXduTycxBEro7HCxzzV-65" target="FkXduTycxBEro7HCxzzV-61">
          <mxGeometry relative="1" as="geometry" />
        </mxCell>
        <mxCell id="FkXduTycxBEro7HCxzzV-70" style="rounded=0;orthogonalLoop=1;jettySize=auto;html=1;exitX=1;exitY=0.5;exitDx=0;exitDy=0;entryX=0;entryY=0.5;entryDx=0;entryDy=0;strokeColor=#808080;align=center;verticalAlign=middle;fontFamily=Helvetica;fontSize=11;fontColor=default;labelBackgroundColor=default;endArrow=none;endFill=0;strokeWidth=0.5;" edge="1" parent="FkXduTycxBEro7HCxzzV-71" source="FkXduTycxBEro7HCxzzV-65" target="FkXduTycxBEro7HCxzzV-63">
          <mxGeometry relative="1" as="geometry" />
        </mxCell>
        <mxCell id="FkXduTycxBEro7HCxzzV-65" value="" style="ellipse;whiteSpace=wrap;html=1;aspect=fixed;fillColor=#dae8fc;strokeColor=#6c8ebf;" vertex="1" parent="FkXduTycxBEro7HCxzzV-71">
          <mxGeometry y="48.609887225027585" width="16.463162087666312" height="16.463162087666312" as="geometry" />
        </mxCell>
        <mxCell id="FkXduTycxBEro7HCxzzV-72" value="&lt;font style=&quot;font-size: 18px;&quot;&gt;L=1&lt;/font&gt;" style="text;html=1;align=center;verticalAlign=middle;whiteSpace=wrap;rounded=0;" vertex="1" parent="FkXduTycxBEro7HCxzzV-73">
          <mxGeometry width="97.29729729729728" height="48.49315068493151" as="geometry" />
        </mxCell>
        <mxCell id="FkXduTycxBEro7HCxzzV-202" value="" style="group" vertex="1" connectable="0" parent="1">
          <mxGeometry x="596.25" y="175" width="20" height="20" as="geometry" />
        </mxCell>
        <mxCell id="FkXduTycxBEro7HCxzzV-199" value="" style="ellipse;whiteSpace=wrap;html=1;aspect=fixed;" vertex="1" parent="FkXduTycxBEro7HCxzzV-202">
          <mxGeometry width="18.91891891891892" height="18.91891891891892" as="geometry" />
        </mxCell>
        <mxCell id="FkXduTycxBEro7HCxzzV-200" value="" style="endArrow=none;html=1;rounded=0;exitX=0;exitY=0.5;exitDx=0;exitDy=0;entryX=1;entryY=0.5;entryDx=0;entryDy=0;" edge="1" parent="FkXduTycxBEro7HCxzzV-202" source="FkXduTycxBEro7HCxzzV-199" target="FkXduTycxBEro7HCxzzV-199">
          <mxGeometry width="50" height="50" relative="1" as="geometry">
            <mxPoint x="38.75" y="18.250000000000004" as="sourcePoint" />
            <mxPoint x="51.25" y="5.750000000000001" as="targetPoint" />
          </mxGeometry>
        </mxCell>
        <mxCell id="FkXduTycxBEro7HCxzzV-201" value="" style="endArrow=none;html=1;rounded=0;exitX=0.5;exitY=1;exitDx=0;exitDy=0;entryX=0.5;entryY=0;entryDx=0;entryDy=0;" edge="1" parent="FkXduTycxBEro7HCxzzV-202" source="FkXduTycxBEro7HCxzzV-199" target="FkXduTycxBEro7HCxzzV-199">
          <mxGeometry width="50" height="50" relative="1" as="geometry">
            <mxPoint x="50" y="10.75" as="sourcePoint" />
            <mxPoint x="70" y="10.75" as="targetPoint" />
          </mxGeometry>
        </mxCell>
        <mxCell id="FkXduTycxBEro7HCxzzV-203" value="" style="endArrow=classic;html=1;rounded=0;entryX=0;entryY=0.5;entryDx=0;entryDy=0;" edge="1" parent="1" target="FkXduTycxBEro7HCxzzV-199">
          <mxGeometry width="50" height="50" relative="1" as="geometry">
            <mxPoint x="576.25" y="184.56756756756755" as="sourcePoint" />
            <mxPoint x="671.25" y="165" as="targetPoint" />
          </mxGeometry>
        </mxCell>
        <mxCell id="FkXduTycxBEro7HCxzzV-204" style="edgeStyle=orthogonalEdgeStyle;rounded=0;orthogonalLoop=1;jettySize=auto;html=1;exitX=0.5;exitY=1;exitDx=0;exitDy=0;entryX=0.5;entryY=0;entryDx=0;entryDy=0;" edge="1" parent="1">
          <mxGeometry relative="1" as="geometry">
            <mxPoint x="607.7094594594595" y="193.91891891891893" as="sourcePoint" />
            <mxPoint x="605.75" y="220" as="targetPoint" />
          </mxGeometry>
        </mxCell>
        <mxCell id="FkXduTycxBEro7HCxzzV-206" style="rounded=0;orthogonalLoop=1;jettySize=auto;html=1;exitX=0.5;exitY=1;exitDx=0;exitDy=0;" edge="1" parent="1" source="FkXduTycxBEro7HCxzzV-55">
          <mxGeometry relative="1" as="geometry">
            <mxPoint x="490" y="120" as="targetPoint" />
            <Array as="points">
              <mxPoint x="490" y="100" />
            </Array>
          </mxGeometry>
        </mxCell>
        <mxCell id="FkXduTycxBEro7HCxzzV-489" style="edgeStyle=orthogonalEdgeStyle;rounded=0;orthogonalLoop=1;jettySize=auto;html=1;exitX=0.5;exitY=1;exitDx=0;exitDy=0;" edge="1" parent="1" source="FkXduTycxBEro7HCxzzV-207">
          <mxGeometry relative="1" as="geometry">
            <mxPoint x="815" y="370" as="targetPoint" />
            <Array as="points">
              <mxPoint x="863" y="340" />
              <mxPoint x="815" y="340" />
            </Array>
          </mxGeometry>
        </mxCell>
        <mxCell id="FkXduTycxBEro7HCxzzV-490" style="edgeStyle=orthogonalEdgeStyle;rounded=0;orthogonalLoop=1;jettySize=auto;html=1;exitX=0.5;exitY=1;exitDx=0;exitDy=0;" edge="1" parent="1" source="FkXduTycxBEro7HCxzzV-207">
          <mxGeometry relative="1" as="geometry">
            <mxPoint x="905" y="370" as="targetPoint" />
            <Array as="points">
              <mxPoint x="863" y="340" />
              <mxPoint x="905" y="340" />
            </Array>
          </mxGeometry>
        </mxCell>
        <mxCell id="FkXduTycxBEro7HCxzzV-493" style="edgeStyle=orthogonalEdgeStyle;rounded=0;orthogonalLoop=1;jettySize=auto;html=1;exitX=0.5;exitY=1;exitDx=0;exitDy=0;entryX=0;entryY=0.5;entryDx=0;entryDy=0;" edge="1" parent="1" source="FkXduTycxBEro7HCxzzV-207" target="FkXduTycxBEro7HCxzzV-263">
          <mxGeometry relative="1" as="geometry" />
        </mxCell>
        <mxCell id="FkXduTycxBEro7HCxzzV-207" value="&lt;font style=&quot;font-size: 16px;&quot;&gt;\(e_{i}^{cart}\)&lt;/font&gt;" style="text;html=1;align=center;verticalAlign=middle;whiteSpace=wrap;rounded=0;" vertex="1" parent="1">
          <mxGeometry x="835" y="223.6" width="55" height="25.8" as="geometry" />
        </mxCell>
        <mxCell id="FkXduTycxBEro7HCxzzV-208" value="" style="group" vertex="1" connectable="0" parent="1">
          <mxGeometry x="855" y="178.6" width="20" height="20" as="geometry" />
        </mxCell>
        <mxCell id="FkXduTycxBEro7HCxzzV-209" value="" style="ellipse;whiteSpace=wrap;html=1;aspect=fixed;" vertex="1" parent="FkXduTycxBEro7HCxzzV-208">
          <mxGeometry width="18.91891891891892" height="18.91891891891892" as="geometry" />
        </mxCell>
        <mxCell id="FkXduTycxBEro7HCxzzV-210" value="" style="endArrow=none;html=1;rounded=0;exitX=0;exitY=0.5;exitDx=0;exitDy=0;entryX=1;entryY=0.5;entryDx=0;entryDy=0;" edge="1" parent="FkXduTycxBEro7HCxzzV-208" source="FkXduTycxBEro7HCxzzV-209" target="FkXduTycxBEro7HCxzzV-209">
          <mxGeometry width="50" height="50" relative="1" as="geometry">
            <mxPoint x="38.75" y="18.250000000000004" as="sourcePoint" />
            <mxPoint x="51.25" y="5.750000000000001" as="targetPoint" />
          </mxGeometry>
        </mxCell>
        <mxCell id="FkXduTycxBEro7HCxzzV-211" value="" style="endArrow=none;html=1;rounded=0;exitX=0.5;exitY=1;exitDx=0;exitDy=0;entryX=0.5;entryY=0;entryDx=0;entryDy=0;" edge="1" parent="FkXduTycxBEro7HCxzzV-208" source="FkXduTycxBEro7HCxzzV-209" target="FkXduTycxBEro7HCxzzV-209">
          <mxGeometry width="50" height="50" relative="1" as="geometry">
            <mxPoint x="50" y="10.75" as="sourcePoint" />
            <mxPoint x="70" y="10.75" as="targetPoint" />
          </mxGeometry>
        </mxCell>
        <mxCell id="FkXduTycxBEro7HCxzzV-212" value="" style="endArrow=classic;html=1;rounded=0;entryX=0;entryY=0.5;entryDx=0;entryDy=0;" edge="1" parent="1" target="FkXduTycxBEro7HCxzzV-209">
          <mxGeometry width="50" height="50" relative="1" as="geometry">
            <mxPoint x="835" y="188.16756756756754" as="sourcePoint" />
            <mxPoint x="930" y="168.6" as="targetPoint" />
          </mxGeometry>
        </mxCell>
        <mxCell id="FkXduTycxBEro7HCxzzV-213" style="edgeStyle=orthogonalEdgeStyle;rounded=0;orthogonalLoop=1;jettySize=auto;html=1;exitX=0.5;exitY=1;exitDx=0;exitDy=0;entryX=0.5;entryY=0;entryDx=0;entryDy=0;" edge="1" parent="1">
          <mxGeometry relative="1" as="geometry">
            <mxPoint x="866.4594594594595" y="197.51891891891896" as="sourcePoint" />
            <mxPoint x="864.5" y="223.6" as="targetPoint" />
          </mxGeometry>
        </mxCell>
        <mxCell id="FkXduTycxBEro7HCxzzV-214" style="edgeStyle=orthogonalEdgeStyle;rounded=0;orthogonalLoop=1;jettySize=auto;html=1;exitX=0.5;exitY=1;exitDx=0;exitDy=0;entryX=0.5;entryY=0;entryDx=0;entryDy=0;" edge="1" parent="1" source="FkXduTycxBEro7HCxzzV-55" target="FkXduTycxBEro7HCxzzV-107">
          <mxGeometry relative="1" as="geometry" />
        </mxCell>
        <mxCell id="FkXduTycxBEro7HCxzzV-215" value="" style="group" vertex="1" connectable="0" parent="1">
          <mxGeometry x="725" y="34.2" width="60" height="45.8" as="geometry" />
        </mxCell>
        <mxCell id="FkXduTycxBEro7HCxzzV-53" value="" style="group;fillColor=#dae8fc;strokeColor=#6c8ebf;rotation=0;" vertex="1" connectable="0" parent="FkXduTycxBEro7HCxzzV-215">
          <mxGeometry y="25.799999999999997" width="60" height="20" as="geometry" />
        </mxCell>
        <mxCell id="FkXduTycxBEro7HCxzzV-54" value="" style="rounded=0;whiteSpace=wrap;html=1;fillColor=#004C99;strokeColor=#6c8ebf;rotation=0;" vertex="1" parent="FkXduTycxBEro7HCxzzV-53">
          <mxGeometry width="20" height="20" as="geometry" />
        </mxCell>
        <mxCell id="FkXduTycxBEro7HCxzzV-55" value="" style="rounded=0;whiteSpace=wrap;html=1;fillColor=#66B2FF;strokeColor=#6c8ebf;rotation=0;" vertex="1" parent="FkXduTycxBEro7HCxzzV-53">
          <mxGeometry x="20" width="20" height="20" as="geometry" />
        </mxCell>
        <mxCell id="FkXduTycxBEro7HCxzzV-56" value="" style="rounded=0;whiteSpace=wrap;html=1;fillColor=#f5f5f5;fontColor=#333333;strokeColor=#666666;rotation=0;" vertex="1" parent="FkXduTycxBEro7HCxzzV-53">
          <mxGeometry x="40" width="20" height="20" as="geometry" />
        </mxCell>
        <mxCell id="FkXduTycxBEro7HCxzzV-205" value="&lt;font style=&quot;font-size: 16px;&quot;&gt;\(e_{i}\)&lt;/font&gt;" style="text;html=1;align=center;verticalAlign=middle;whiteSpace=wrap;rounded=0;" vertex="1" parent="FkXduTycxBEro7HCxzzV-215">
          <mxGeometry x="2.5" width="55" height="25.8" as="geometry" />
        </mxCell>
        <mxCell id="FkXduTycxBEro7HCxzzV-491" style="edgeStyle=orthogonalEdgeStyle;rounded=0;orthogonalLoop=1;jettySize=auto;html=1;exitX=0.5;exitY=1;exitDx=0;exitDy=0;" edge="1" parent="1" source="FkXduTycxBEro7HCxzzV-216">
          <mxGeometry relative="1" as="geometry">
            <mxPoint x="1115" y="370" as="targetPoint" />
          </mxGeometry>
        </mxCell>
        <mxCell id="FkXduTycxBEro7HCxzzV-216" value="&lt;font style=&quot;font-size: 16px;&quot;&gt;\(e_{i}^{buy}\)&lt;/font&gt;" style="text;html=1;align=center;verticalAlign=middle;whiteSpace=wrap;rounded=0;" vertex="1" parent="1">
          <mxGeometry x="1087.5" y="223.6" width="55" height="25.8" as="geometry" />
        </mxCell>
        <mxCell id="FkXduTycxBEro7HCxzzV-217" value="" style="group" vertex="1" connectable="0" parent="1">
          <mxGeometry x="1105" y="178.6" width="20" height="20" as="geometry" />
        </mxCell>
        <mxCell id="FkXduTycxBEro7HCxzzV-218" value="" style="ellipse;whiteSpace=wrap;html=1;aspect=fixed;" vertex="1" parent="FkXduTycxBEro7HCxzzV-217">
          <mxGeometry width="18.91891891891892" height="18.91891891891892" as="geometry" />
        </mxCell>
        <mxCell id="FkXduTycxBEro7HCxzzV-219" value="" style="endArrow=none;html=1;rounded=0;exitX=0;exitY=0.5;exitDx=0;exitDy=0;entryX=1;entryY=0.5;entryDx=0;entryDy=0;" edge="1" parent="FkXduTycxBEro7HCxzzV-217" source="FkXduTycxBEro7HCxzzV-218" target="FkXduTycxBEro7HCxzzV-218">
          <mxGeometry width="50" height="50" relative="1" as="geometry">
            <mxPoint x="38.75" y="18.250000000000004" as="sourcePoint" />
            <mxPoint x="51.25" y="5.750000000000001" as="targetPoint" />
          </mxGeometry>
        </mxCell>
        <mxCell id="FkXduTycxBEro7HCxzzV-220" value="" style="endArrow=none;html=1;rounded=0;exitX=0.5;exitY=1;exitDx=0;exitDy=0;entryX=0.5;entryY=0;entryDx=0;entryDy=0;" edge="1" parent="FkXduTycxBEro7HCxzzV-217" source="FkXduTycxBEro7HCxzzV-218" target="FkXduTycxBEro7HCxzzV-218">
          <mxGeometry width="50" height="50" relative="1" as="geometry">
            <mxPoint x="50" y="10.75" as="sourcePoint" />
            <mxPoint x="70" y="10.75" as="targetPoint" />
          </mxGeometry>
        </mxCell>
        <mxCell id="FkXduTycxBEro7HCxzzV-221" value="" style="endArrow=classic;html=1;rounded=0;entryX=0;entryY=0.5;entryDx=0;entryDy=0;" edge="1" parent="1" target="FkXduTycxBEro7HCxzzV-218">
          <mxGeometry width="50" height="50" relative="1" as="geometry">
            <mxPoint x="1085" y="188.16756756756754" as="sourcePoint" />
            <mxPoint x="1180" y="168.6" as="targetPoint" />
          </mxGeometry>
        </mxCell>
        <mxCell id="FkXduTycxBEro7HCxzzV-222" style="edgeStyle=orthogonalEdgeStyle;rounded=0;orthogonalLoop=1;jettySize=auto;html=1;exitX=0.5;exitY=1;exitDx=0;exitDy=0;entryX=0.5;entryY=0;entryDx=0;entryDy=0;" edge="1" parent="1">
          <mxGeometry relative="1" as="geometry">
            <mxPoint x="1116.4594594594596" y="197.51891891891896" as="sourcePoint" />
            <mxPoint x="1114.5" y="223.6" as="targetPoint" />
          </mxGeometry>
        </mxCell>
        <mxCell id="FkXduTycxBEro7HCxzzV-223" style="rounded=0;orthogonalLoop=1;jettySize=auto;html=1;exitX=0.5;exitY=1;exitDx=0;exitDy=0;entryX=0.5;entryY=0;entryDx=0;entryDy=0;" edge="1" parent="1" source="FkXduTycxBEro7HCxzzV-55" target="FkXduTycxBEro7HCxzzV-152">
          <mxGeometry relative="1" as="geometry">
            <Array as="points">
              <mxPoint x="1005" y="100" />
            </Array>
          </mxGeometry>
        </mxCell>
        <mxCell id="FkXduTycxBEro7HCxzzV-224" value="生成器" style="shape=umlActor;verticalLabelPosition=bottom;verticalAlign=top;html=1;outlineConnect=0;" vertex="1" parent="1">
          <mxGeometry x="800" y="380" width="30" height="60" as="geometry" />
        </mxCell>
        <mxCell id="FkXduTycxBEro7HCxzzV-225" value="鉴别器" style="shape=umlActor;verticalLabelPosition=bottom;verticalAlign=top;html=1;outlineConnect=0;" vertex="1" parent="1">
          <mxGeometry x="590" y="380" width="30" height="60" as="geometry" />
        </mxCell>
        <mxCell id="FkXduTycxBEro7HCxzzV-228" value="" style="endArrow=classic;html=1;rounded=0;" edge="1" parent="1">
          <mxGeometry width="50" height="50" relative="1" as="geometry">
            <mxPoint x="800" y="410" as="sourcePoint" />
            <mxPoint x="750" y="410" as="targetPoint" />
          </mxGeometry>
        </mxCell>
        <mxCell id="FkXduTycxBEro7HCxzzV-233" value="" style="endArrow=classic;html=1;rounded=0;" edge="1" parent="1">
          <mxGeometry width="50" height="50" relative="1" as="geometry">
            <mxPoint x="620" y="410" as="sourcePoint" />
            <mxPoint x="670" y="410" as="targetPoint" />
          </mxGeometry>
        </mxCell>
        <mxCell id="FkXduTycxBEro7HCxzzV-235" value="&lt;font style=&quot;font-size: 16px;&quot;&gt;\( L_d \)&lt;/font&gt;" style="text;html=1;align=center;verticalAlign=middle;whiteSpace=wrap;rounded=0;" vertex="1" parent="1">
          <mxGeometry x="630" y="460" width="20" height="25" as="geometry" />
        </mxCell>
        <mxCell id="FkXduTycxBEro7HCxzzV-236" value="" style="endArrow=classic;html=1;rounded=0;entryX=0.5;entryY=0;entryDx=0;entryDy=0;" edge="1" parent="1" target="FkXduTycxBEro7HCxzzV-235">
          <mxGeometry width="50" height="50" relative="1" as="geometry">
            <mxPoint x="640" y="410" as="sourcePoint" />
            <mxPoint x="775" y="470" as="targetPoint" />
          </mxGeometry>
        </mxCell>
        <mxCell id="FkXduTycxBEro7HCxzzV-238" value="&lt;font style=&quot;font-size: 16px;&quot;&gt;\( L_g \)&lt;/font&gt;" style="text;html=1;align=center;verticalAlign=middle;whiteSpace=wrap;rounded=0;" vertex="1" parent="1">
          <mxGeometry x="770" y="459.2" width="20" height="25.8" as="geometry" />
        </mxCell>
        <mxCell id="FkXduTycxBEro7HCxzzV-239" value="" style="endArrow=classic;html=1;rounded=0;entryX=0.5;entryY=0;entryDx=0;entryDy=0;" edge="1" parent="1" target="FkXduTycxBEro7HCxzzV-238">
          <mxGeometry width="50" height="50" relative="1" as="geometry">
            <mxPoint x="780" y="410" as="sourcePoint" />
            <mxPoint x="915" y="470" as="targetPoint" />
          </mxGeometry>
        </mxCell>
        <mxCell id="FkXduTycxBEro7HCxzzV-248" style="edgeStyle=orthogonalEdgeStyle;rounded=0;orthogonalLoop=1;jettySize=auto;html=1;exitX=0.5;exitY=1;exitDx=0;exitDy=0;entryX=0.5;entryY=0;entryDx=0;entryDy=0;" edge="1" parent="1" source="FkXduTycxBEro7HCxzzV-240" target="FkXduTycxBEro7HCxzzV-245">
          <mxGeometry relative="1" as="geometry" />
        </mxCell>
        <mxCell id="FkXduTycxBEro7HCxzzV-240" value="&lt;font style=&quot;font-size: 16px;&quot;&gt;\(e_{sim\_tail}^{view}\)&lt;/font&gt;" style="text;html=1;align=center;verticalAlign=middle;whiteSpace=wrap;rounded=0;" vertex="1" parent="1">
          <mxGeometry x="685" y="397.1" width="55" height="25.8" as="geometry" />
        </mxCell>
        <mxCell id="FkXduTycxBEro7HCxzzV-486" style="edgeStyle=orthogonalEdgeStyle;rounded=0;orthogonalLoop=1;jettySize=auto;html=1;exitX=0.5;exitY=1;exitDx=0;exitDy=0;entryX=0.5;entryY=0;entryDx=0;entryDy=0;" edge="1" parent="1" source="FkXduTycxBEro7HCxzzV-245" target="FkXduTycxBEro7HCxzzV-251">
          <mxGeometry relative="1" as="geometry" />
        </mxCell>
        <mxCell id="FkXduTycxBEro7HCxzzV-245" value="门控融合" style="rounded=1;whiteSpace=wrap;html=1;" vertex="1" parent="1">
          <mxGeometry x="681.5" y="480" width="62" height="26" as="geometry" />
        </mxCell>
        <mxCell id="FkXduTycxBEro7HCxzzV-251" value="&lt;font style=&quot;font-size: 16px;&quot;&gt;\(e_{i}^{view^\prime}\)&lt;/font&gt;" style="text;html=1;align=center;verticalAlign=middle;whiteSpace=wrap;rounded=0;" vertex="1" parent="1">
          <mxGeometry x="685.5" y="519.9999999999999" width="55" height="25.8" as="geometry" />
        </mxCell>
        <mxCell id="FkXduTycxBEro7HCxzzV-252" value="生成器" style="shape=umlActor;verticalLabelPosition=bottom;verticalAlign=top;html=1;outlineConnect=0;" vertex="1" parent="1">
          <mxGeometry x="1100" y="380" width="30" height="60" as="geometry" />
        </mxCell>
        <mxCell id="FkXduTycxBEro7HCxzzV-253" value="鉴别器" style="shape=umlActor;verticalLabelPosition=bottom;verticalAlign=top;html=1;outlineConnect=0;" vertex="1" parent="1">
          <mxGeometry x="890" y="380" width="30" height="60" as="geometry" />
        </mxCell>
        <mxCell id="FkXduTycxBEro7HCxzzV-254" value="" style="endArrow=classic;html=1;rounded=0;" edge="1" parent="1">
          <mxGeometry width="50" height="50" relative="1" as="geometry">
            <mxPoint x="1100" y="410" as="sourcePoint" />
            <mxPoint x="1050" y="410" as="targetPoint" />
          </mxGeometry>
        </mxCell>
        <mxCell id="FkXduTycxBEro7HCxzzV-255" value="" style="endArrow=classic;html=1;rounded=0;" edge="1" parent="1">
          <mxGeometry width="50" height="50" relative="1" as="geometry">
            <mxPoint x="920" y="410" as="sourcePoint" />
            <mxPoint x="970" y="410" as="targetPoint" />
          </mxGeometry>
        </mxCell>
        <mxCell id="FkXduTycxBEro7HCxzzV-256" value="&lt;font style=&quot;font-size: 16px;&quot;&gt;\( L_d \)&lt;/font&gt;" style="text;html=1;align=center;verticalAlign=middle;whiteSpace=wrap;rounded=0;" vertex="1" parent="1">
          <mxGeometry x="930" y="460" width="20" height="25" as="geometry" />
        </mxCell>
        <mxCell id="FkXduTycxBEro7HCxzzV-257" value="" style="endArrow=classic;html=1;rounded=0;entryX=0.5;entryY=0;entryDx=0;entryDy=0;" edge="1" parent="1" target="FkXduTycxBEro7HCxzzV-256">
          <mxGeometry width="50" height="50" relative="1" as="geometry">
            <mxPoint x="940" y="410" as="sourcePoint" />
            <mxPoint x="1075" y="470" as="targetPoint" />
          </mxGeometry>
        </mxCell>
        <mxCell id="FkXduTycxBEro7HCxzzV-258" value="&lt;font style=&quot;font-size: 16px;&quot;&gt;\( L_g \)&lt;/font&gt;" style="text;html=1;align=center;verticalAlign=middle;whiteSpace=wrap;rounded=0;" vertex="1" parent="1">
          <mxGeometry x="1070" y="459.20000000000005" width="20" height="25.8" as="geometry" />
        </mxCell>
        <mxCell id="FkXduTycxBEro7HCxzzV-259" value="" style="endArrow=classic;html=1;rounded=0;entryX=0.5;entryY=0;entryDx=0;entryDy=0;" edge="1" parent="1" target="FkXduTycxBEro7HCxzzV-258">
          <mxGeometry width="50" height="50" relative="1" as="geometry">
            <mxPoint x="1080" y="410" as="sourcePoint" />
            <mxPoint x="1215" y="470" as="targetPoint" />
          </mxGeometry>
        </mxCell>
        <mxCell id="FkXduTycxBEro7HCxzzV-260" style="edgeStyle=orthogonalEdgeStyle;rounded=0;orthogonalLoop=1;jettySize=auto;html=1;exitX=0.5;exitY=1;exitDx=0;exitDy=0;entryX=0.5;entryY=0;entryDx=0;entryDy=0;" edge="1" parent="1" source="FkXduTycxBEro7HCxzzV-261" target="FkXduTycxBEro7HCxzzV-263">
          <mxGeometry relative="1" as="geometry" />
        </mxCell>
        <mxCell id="FkXduTycxBEro7HCxzzV-261" value="&lt;font style=&quot;font-size: 16px;&quot;&gt;\(e_{sim\_tail}^{cart}\)&lt;/font&gt;" style="text;html=1;align=center;verticalAlign=middle;whiteSpace=wrap;rounded=0;" vertex="1" parent="1">
          <mxGeometry x="985" y="397.1" width="55" height="25.8" as="geometry" />
        </mxCell>
        <mxCell id="FkXduTycxBEro7HCxzzV-487" style="edgeStyle=orthogonalEdgeStyle;rounded=0;orthogonalLoop=1;jettySize=auto;html=1;exitX=0.5;exitY=1;exitDx=0;exitDy=0;entryX=0.5;entryY=0;entryDx=0;entryDy=0;" edge="1" parent="1" source="FkXduTycxBEro7HCxzzV-263" target="FkXduTycxBEro7HCxzzV-264">
          <mxGeometry relative="1" as="geometry" />
        </mxCell>
        <mxCell id="FkXduTycxBEro7HCxzzV-263" value="门控融合" style="rounded=1;whiteSpace=wrap;html=1;" vertex="1" parent="1">
          <mxGeometry x="981.5" y="480.80000000000007" width="62" height="26" as="geometry" />
        </mxCell>
        <mxCell id="FkXduTycxBEro7HCxzzV-503" style="edgeStyle=orthogonalEdgeStyle;rounded=0;orthogonalLoop=1;jettySize=auto;html=1;exitX=0;exitY=0.5;exitDx=0;exitDy=0;entryX=0.5;entryY=0;entryDx=0;entryDy=0;" edge="1" parent="1" source="FkXduTycxBEro7HCxzzV-264" target="FkXduTycxBEro7HCxzzV-425">
          <mxGeometry relative="1" as="geometry" />
        </mxCell>
        <mxCell id="FkXduTycxBEro7HCxzzV-264" value="&lt;font style=&quot;font-size: 16px;&quot;&gt;\(e_{i}^{cart^\prime}\)&lt;/font&gt;" style="text;html=1;align=center;verticalAlign=middle;whiteSpace=wrap;rounded=0;" vertex="1" parent="1">
          <mxGeometry x="985" y="520" width="55" height="25.8" as="geometry" />
        </mxCell>
        <mxCell id="FkXduTycxBEro7HCxzzV-376" value="&lt;font style=&quot;font-size: 18px;&quot;&gt;浏览&lt;/font&gt;" style="text;html=1;align=center;verticalAlign=middle;whiteSpace=wrap;rounded=0;" vertex="1" parent="1">
          <mxGeometry x="420" y="120" width="42.3" height="22.07" as="geometry" />
        </mxCell>
        <mxCell id="FkXduTycxBEro7HCxzzV-377" value="&lt;font style=&quot;font-size: 18px;&quot;&gt;加购物车&lt;/font&gt;" style="text;html=1;align=center;verticalAlign=middle;whiteSpace=wrap;rounded=0;" vertex="1" parent="1">
          <mxGeometry x="675" y="121.97" width="80" height="22.07" as="geometry" />
        </mxCell>
        <mxCell id="FkXduTycxBEro7HCxzzV-378" value="&lt;font style=&quot;font-size: 18px;&quot;&gt;购买&lt;/font&gt;" style="text;html=1;align=center;verticalAlign=middle;whiteSpace=wrap;rounded=0;" vertex="1" parent="1">
          <mxGeometry x="925" y="122" width="42.3" height="22.07" as="geometry" />
        </mxCell>
        <mxCell id="FkXduTycxBEro7HCxzzV-499" style="edgeStyle=orthogonalEdgeStyle;rounded=0;orthogonalLoop=1;jettySize=auto;html=1;exitX=1;exitY=0.386;exitDx=0;exitDy=0;entryX=0;entryY=0.5;entryDx=0;entryDy=0;exitPerimeter=0;" edge="1" parent="1" source="FkXduTycxBEro7HCxzzV-381" target="FkXduTycxBEro7HCxzzV-425">
          <mxGeometry relative="1" as="geometry" />
        </mxCell>
        <mxCell id="FkXduTycxBEro7HCxzzV-379" value="" style="rounded=1;whiteSpace=wrap;html=1;dashed=1;strokeColor=#CCCCCC;" vertex="1" parent="1">
          <mxGeometry x="630" y="568.5" width="160" height="200" as="geometry" />
        </mxCell>
        <mxCell id="FkXduTycxBEro7HCxzzV-380" value="" style="group" vertex="1" connectable="0" parent="1">
          <mxGeometry x="660" y="583.5" width="120" height="118" as="geometry" />
        </mxCell>
        <mxCell id="FkXduTycxBEro7HCxzzV-381" value="" style="rounded=1;whiteSpace=wrap;html=1;fillColor=#F5F5F5;strokeColor=#d6b656;gradientColor=#FFDF97;" vertex="1" parent="FkXduTycxBEro7HCxzzV-380">
          <mxGeometry x="22.702702702702695" y="12.931506849315067" width="97.29729729729728" height="105.06849315068494" as="geometry" />
        </mxCell>
        <mxCell id="FkXduTycxBEro7HCxzzV-382" value="" style="group" vertex="1" connectable="0" parent="FkXduTycxBEro7HCxzzV-380">
          <mxGeometry x="38.918918918918905" y="29.0958904109589" width="64.86486486486487" height="80.82191780821917" as="geometry" />
        </mxCell>
        <mxCell id="FkXduTycxBEro7HCxzzV-383" style="rounded=0;orthogonalLoop=1;jettySize=auto;html=1;exitX=1;exitY=0.5;exitDx=0;exitDy=0;entryX=0;entryY=0.5;entryDx=0;entryDy=0;endArrow=none;endFill=0;strokeColor=#808080;strokeWidth=0.5;" edge="1" parent="FkXduTycxBEro7HCxzzV-382" source="FkXduTycxBEro7HCxzzV-386" target="FkXduTycxBEro7HCxzzV-387">
          <mxGeometry relative="1" as="geometry" />
        </mxCell>
        <mxCell id="FkXduTycxBEro7HCxzzV-384" style="rounded=0;orthogonalLoop=1;jettySize=auto;html=1;exitX=1;exitY=0.5;exitDx=0;exitDy=0;entryX=0;entryY=0.5;entryDx=0;entryDy=0;strokeColor=#808080;align=center;verticalAlign=middle;fontFamily=Helvetica;fontSize=11;fontColor=default;labelBackgroundColor=default;endArrow=none;endFill=0;strokeWidth=0.5;" edge="1" parent="FkXduTycxBEro7HCxzzV-382" source="FkXduTycxBEro7HCxzzV-386" target="FkXduTycxBEro7HCxzzV-388">
          <mxGeometry relative="1" as="geometry" />
        </mxCell>
        <mxCell id="FkXduTycxBEro7HCxzzV-385" style="rounded=0;orthogonalLoop=1;jettySize=auto;html=1;exitX=1;exitY=0.5;exitDx=0;exitDy=0;entryX=0;entryY=0.5;entryDx=0;entryDy=0;strokeColor=#808080;align=center;verticalAlign=middle;fontFamily=Helvetica;fontSize=11;fontColor=default;labelBackgroundColor=default;endArrow=none;endFill=0;strokeWidth=0.5;" edge="1" parent="FkXduTycxBEro7HCxzzV-382" source="FkXduTycxBEro7HCxzzV-386" target="FkXduTycxBEro7HCxzzV-389">
          <mxGeometry relative="1" as="geometry" />
        </mxCell>
        <mxCell id="FkXduTycxBEro7HCxzzV-386" value="" style="ellipse;whiteSpace=wrap;html=1;aspect=fixed;fillColor=#dae8fc;strokeColor=#6c8ebf;" vertex="1" parent="FkXduTycxBEro7HCxzzV-382">
          <mxGeometry y="18.14333603817466" width="16.463162087666312" height="16.463162087666312" as="geometry" />
        </mxCell>
        <mxCell id="FkXduTycxBEro7HCxzzV-387" value="" style="ellipse;whiteSpace=wrap;html=1;aspect=fixed;fillColor=#f5f5f5;strokeColor=#666666;fontColor=#333333;" vertex="1" parent="FkXduTycxBEro7HCxzzV-382">
          <mxGeometry x="46.09539593483496" width="16.463162087666312" height="16.463162087666312" as="geometry" />
        </mxCell>
        <mxCell id="FkXduTycxBEro7HCxzzV-388" value="" style="ellipse;whiteSpace=wrap;html=1;aspect=fixed;fillColor=#f5f5f5;strokeColor=#666666;fontColor=#333333;" vertex="1" parent="FkXduTycxBEro7HCxzzV-382">
          <mxGeometry x="46.09539593483496" y="30.466551186853014" width="16.463162087666312" height="16.463162087666312" as="geometry" />
        </mxCell>
        <mxCell id="FkXduTycxBEro7HCxzzV-389" value="" style="ellipse;whiteSpace=wrap;html=1;aspect=fixed;fillColor=#f5f5f5;strokeColor=#666666;fontColor=#333333;" vertex="1" parent="FkXduTycxBEro7HCxzzV-382">
          <mxGeometry x="46.09539593483496" y="62.68507753942167" width="16.463162087666312" height="16.463162087666312" as="geometry" />
        </mxCell>
        <mxCell id="FkXduTycxBEro7HCxzzV-390" style="rounded=0;orthogonalLoop=1;jettySize=auto;html=1;exitX=1;exitY=0.5;exitDx=0;exitDy=0;entryX=0;entryY=0.5;entryDx=0;entryDy=0;strokeColor=#808080;align=center;verticalAlign=middle;fontFamily=Helvetica;fontSize=11;fontColor=default;labelBackgroundColor=default;endArrow=none;endFill=0;strokeWidth=0.5;" edge="1" parent="FkXduTycxBEro7HCxzzV-382" source="FkXduTycxBEro7HCxzzV-392" target="FkXduTycxBEro7HCxzzV-387">
          <mxGeometry relative="1" as="geometry" />
        </mxCell>
        <mxCell id="FkXduTycxBEro7HCxzzV-391" style="rounded=0;orthogonalLoop=1;jettySize=auto;html=1;exitX=1;exitY=0.5;exitDx=0;exitDy=0;entryX=0;entryY=0.5;entryDx=0;entryDy=0;strokeColor=#808080;align=center;verticalAlign=middle;fontFamily=Helvetica;fontSize=11;fontColor=default;labelBackgroundColor=default;endArrow=none;endFill=0;strokeWidth=0.5;" edge="1" parent="FkXduTycxBEro7HCxzzV-382" source="FkXduTycxBEro7HCxzzV-392" target="FkXduTycxBEro7HCxzzV-388">
          <mxGeometry relative="1" as="geometry" />
        </mxCell>
        <mxCell id="FkXduTycxBEro7HCxzzV-392" value="" style="ellipse;whiteSpace=wrap;html=1;aspect=fixed;fillColor=#dae8fc;strokeColor=#6c8ebf;" vertex="1" parent="FkXduTycxBEro7HCxzzV-382">
          <mxGeometry y="48.609887225027585" width="16.463162087666312" height="16.463162087666312" as="geometry" />
        </mxCell>
        <mxCell id="FkXduTycxBEro7HCxzzV-393" value="&lt;font style=&quot;font-size: 18px;&quot;&gt;L=3&lt;/font&gt;" style="text;html=1;align=center;verticalAlign=middle;whiteSpace=wrap;rounded=0;" vertex="1" parent="FkXduTycxBEro7HCxzzV-380">
          <mxGeometry width="97.29729729729728" height="48.49315068493151" as="geometry" />
        </mxCell>
        <mxCell id="FkXduTycxBEro7HCxzzV-394" value="" style="group" vertex="1" connectable="0" parent="1">
          <mxGeometry x="640" y="603.5" width="120" height="118" as="geometry" />
        </mxCell>
        <mxCell id="FkXduTycxBEro7HCxzzV-395" value="" style="rounded=1;whiteSpace=wrap;html=1;fillColor=#F5F5F5;strokeColor=#d6b656;gradientColor=#FFDF97;" vertex="1" parent="FkXduTycxBEro7HCxzzV-394">
          <mxGeometry x="22.702702702702695" y="12.931506849315067" width="97.29729729729728" height="105.06849315068494" as="geometry" />
        </mxCell>
        <mxCell id="FkXduTycxBEro7HCxzzV-396" value="" style="group" vertex="1" connectable="0" parent="FkXduTycxBEro7HCxzzV-394">
          <mxGeometry x="38.918918918918905" y="29.0958904109589" width="64.86486486486487" height="80.82191780821917" as="geometry" />
        </mxCell>
        <mxCell id="FkXduTycxBEro7HCxzzV-397" style="rounded=0;orthogonalLoop=1;jettySize=auto;html=1;exitX=1;exitY=0.5;exitDx=0;exitDy=0;entryX=0;entryY=0.5;entryDx=0;entryDy=0;endArrow=none;endFill=0;strokeColor=#808080;strokeWidth=0.5;" edge="1" parent="FkXduTycxBEro7HCxzzV-396" source="FkXduTycxBEro7HCxzzV-400" target="FkXduTycxBEro7HCxzzV-401">
          <mxGeometry relative="1" as="geometry" />
        </mxCell>
        <mxCell id="FkXduTycxBEro7HCxzzV-398" style="rounded=0;orthogonalLoop=1;jettySize=auto;html=1;exitX=1;exitY=0.5;exitDx=0;exitDy=0;entryX=0;entryY=0.5;entryDx=0;entryDy=0;strokeColor=#808080;align=center;verticalAlign=middle;fontFamily=Helvetica;fontSize=11;fontColor=default;labelBackgroundColor=default;endArrow=none;endFill=0;strokeWidth=0.5;" edge="1" parent="FkXduTycxBEro7HCxzzV-396" source="FkXduTycxBEro7HCxzzV-400" target="FkXduTycxBEro7HCxzzV-402">
          <mxGeometry relative="1" as="geometry" />
        </mxCell>
        <mxCell id="FkXduTycxBEro7HCxzzV-399" style="rounded=0;orthogonalLoop=1;jettySize=auto;html=1;exitX=1;exitY=0.5;exitDx=0;exitDy=0;entryX=0;entryY=0.5;entryDx=0;entryDy=0;strokeColor=#808080;align=center;verticalAlign=middle;fontFamily=Helvetica;fontSize=11;fontColor=default;labelBackgroundColor=default;endArrow=none;endFill=0;strokeWidth=0.5;" edge="1" parent="FkXduTycxBEro7HCxzzV-396" source="FkXduTycxBEro7HCxzzV-400" target="FkXduTycxBEro7HCxzzV-403">
          <mxGeometry relative="1" as="geometry" />
        </mxCell>
        <mxCell id="FkXduTycxBEro7HCxzzV-400" value="" style="ellipse;whiteSpace=wrap;html=1;aspect=fixed;fillColor=#dae8fc;strokeColor=#6c8ebf;" vertex="1" parent="FkXduTycxBEro7HCxzzV-396">
          <mxGeometry y="18.14333603817466" width="16.463162087666312" height="16.463162087666312" as="geometry" />
        </mxCell>
        <mxCell id="FkXduTycxBEro7HCxzzV-401" value="" style="ellipse;whiteSpace=wrap;html=1;aspect=fixed;fillColor=#f5f5f5;strokeColor=#666666;fontColor=#333333;" vertex="1" parent="FkXduTycxBEro7HCxzzV-396">
          <mxGeometry x="46.09539593483496" width="16.463162087666312" height="16.463162087666312" as="geometry" />
        </mxCell>
        <mxCell id="FkXduTycxBEro7HCxzzV-402" value="" style="ellipse;whiteSpace=wrap;html=1;aspect=fixed;fillColor=#f5f5f5;strokeColor=#666666;fontColor=#333333;" vertex="1" parent="FkXduTycxBEro7HCxzzV-396">
          <mxGeometry x="46.09539593483496" y="30.466551186853014" width="16.463162087666312" height="16.463162087666312" as="geometry" />
        </mxCell>
        <mxCell id="FkXduTycxBEro7HCxzzV-403" value="" style="ellipse;whiteSpace=wrap;html=1;aspect=fixed;fillColor=#f5f5f5;strokeColor=#666666;fontColor=#333333;" vertex="1" parent="FkXduTycxBEro7HCxzzV-396">
          <mxGeometry x="46.09539593483496" y="62.68507753942167" width="16.463162087666312" height="16.463162087666312" as="geometry" />
        </mxCell>
        <mxCell id="FkXduTycxBEro7HCxzzV-404" style="rounded=0;orthogonalLoop=1;jettySize=auto;html=1;exitX=1;exitY=0.5;exitDx=0;exitDy=0;entryX=0;entryY=0.5;entryDx=0;entryDy=0;strokeColor=#808080;align=center;verticalAlign=middle;fontFamily=Helvetica;fontSize=11;fontColor=default;labelBackgroundColor=default;endArrow=none;endFill=0;strokeWidth=0.5;" edge="1" parent="FkXduTycxBEro7HCxzzV-396" source="FkXduTycxBEro7HCxzzV-406" target="FkXduTycxBEro7HCxzzV-401">
          <mxGeometry relative="1" as="geometry" />
        </mxCell>
        <mxCell id="FkXduTycxBEro7HCxzzV-405" style="rounded=0;orthogonalLoop=1;jettySize=auto;html=1;exitX=1;exitY=0.5;exitDx=0;exitDy=0;entryX=0;entryY=0.5;entryDx=0;entryDy=0;strokeColor=#808080;align=center;verticalAlign=middle;fontFamily=Helvetica;fontSize=11;fontColor=default;labelBackgroundColor=default;endArrow=none;endFill=0;strokeWidth=0.5;" edge="1" parent="FkXduTycxBEro7HCxzzV-396" source="FkXduTycxBEro7HCxzzV-406" target="FkXduTycxBEro7HCxzzV-402">
          <mxGeometry relative="1" as="geometry" />
        </mxCell>
        <mxCell id="FkXduTycxBEro7HCxzzV-406" value="" style="ellipse;whiteSpace=wrap;html=1;aspect=fixed;fillColor=#dae8fc;strokeColor=#6c8ebf;" vertex="1" parent="FkXduTycxBEro7HCxzzV-396">
          <mxGeometry y="48.609887225027585" width="16.463162087666312" height="16.463162087666312" as="geometry" />
        </mxCell>
        <mxCell id="FkXduTycxBEro7HCxzzV-407" value="&lt;font style=&quot;font-size: 18px;&quot;&gt;L=2&lt;/font&gt;" style="text;html=1;align=center;verticalAlign=middle;whiteSpace=wrap;rounded=0;" vertex="1" parent="FkXduTycxBEro7HCxzzV-394">
          <mxGeometry width="97.29729729729728" height="48.49315068493151" as="geometry" />
        </mxCell>
        <mxCell id="FkXduTycxBEro7HCxzzV-408" value="" style="group" vertex="1" connectable="0" parent="1">
          <mxGeometry x="620" y="623.5" width="120" height="118" as="geometry" />
        </mxCell>
        <mxCell id="FkXduTycxBEro7HCxzzV-409" value="" style="rounded=1;whiteSpace=wrap;html=1;fillColor=#F5F5F5;strokeColor=#d6b656;gradientColor=#FFDF97;" vertex="1" parent="FkXduTycxBEro7HCxzzV-408">
          <mxGeometry x="22.702702702702695" y="12.931506849315067" width="97.29729729729728" height="105.06849315068494" as="geometry" />
        </mxCell>
        <mxCell id="FkXduTycxBEro7HCxzzV-410" value="" style="group" vertex="1" connectable="0" parent="FkXduTycxBEro7HCxzzV-408">
          <mxGeometry x="38.918918918918905" y="29.0958904109589" width="64.86486486486487" height="80.82191780821917" as="geometry" />
        </mxCell>
        <mxCell id="FkXduTycxBEro7HCxzzV-411" style="rounded=0;orthogonalLoop=1;jettySize=auto;html=1;exitX=1;exitY=0.5;exitDx=0;exitDy=0;entryX=0;entryY=0.5;entryDx=0;entryDy=0;endArrow=none;endFill=0;strokeColor=#808080;strokeWidth=0.5;" edge="1" parent="FkXduTycxBEro7HCxzzV-410" source="FkXduTycxBEro7HCxzzV-414" target="FkXduTycxBEro7HCxzzV-415">
          <mxGeometry relative="1" as="geometry" />
        </mxCell>
        <mxCell id="FkXduTycxBEro7HCxzzV-412" style="rounded=0;orthogonalLoop=1;jettySize=auto;html=1;exitX=1;exitY=0.5;exitDx=0;exitDy=0;entryX=0;entryY=0.5;entryDx=0;entryDy=0;strokeColor=#808080;align=center;verticalAlign=middle;fontFamily=Helvetica;fontSize=11;fontColor=default;labelBackgroundColor=default;endArrow=none;endFill=0;strokeWidth=0.5;" edge="1" parent="FkXduTycxBEro7HCxzzV-410" source="FkXduTycxBEro7HCxzzV-414" target="FkXduTycxBEro7HCxzzV-416">
          <mxGeometry relative="1" as="geometry" />
        </mxCell>
        <mxCell id="FkXduTycxBEro7HCxzzV-413" style="rounded=0;orthogonalLoop=1;jettySize=auto;html=1;exitX=1;exitY=0.5;exitDx=0;exitDy=0;entryX=0;entryY=0.5;entryDx=0;entryDy=0;strokeColor=#808080;align=center;verticalAlign=middle;fontFamily=Helvetica;fontSize=11;fontColor=default;labelBackgroundColor=default;endArrow=none;endFill=0;strokeWidth=0.5;" edge="1" parent="FkXduTycxBEro7HCxzzV-410" source="FkXduTycxBEro7HCxzzV-414" target="FkXduTycxBEro7HCxzzV-417">
          <mxGeometry relative="1" as="geometry" />
        </mxCell>
        <mxCell id="FkXduTycxBEro7HCxzzV-414" value="" style="ellipse;whiteSpace=wrap;html=1;aspect=fixed;fillColor=#dae8fc;strokeColor=#6c8ebf;" vertex="1" parent="FkXduTycxBEro7HCxzzV-410">
          <mxGeometry y="18.14333603817466" width="16.463162087666312" height="16.463162087666312" as="geometry" />
        </mxCell>
        <mxCell id="FkXduTycxBEro7HCxzzV-415" value="" style="ellipse;whiteSpace=wrap;html=1;aspect=fixed;fillColor=#f5f5f5;strokeColor=#666666;fontColor=#333333;" vertex="1" parent="FkXduTycxBEro7HCxzzV-410">
          <mxGeometry x="46.09539593483496" width="16.463162087666312" height="16.463162087666312" as="geometry" />
        </mxCell>
        <mxCell id="FkXduTycxBEro7HCxzzV-416" value="" style="ellipse;whiteSpace=wrap;html=1;aspect=fixed;fillColor=#f5f5f5;strokeColor=#666666;fontColor=#333333;" vertex="1" parent="FkXduTycxBEro7HCxzzV-410">
          <mxGeometry x="46.09539593483496" y="30.466551186853014" width="16.463162087666312" height="16.463162087666312" as="geometry" />
        </mxCell>
        <mxCell id="FkXduTycxBEro7HCxzzV-417" value="" style="ellipse;whiteSpace=wrap;html=1;aspect=fixed;fillColor=#f5f5f5;strokeColor=#666666;fontColor=#333333;" vertex="1" parent="FkXduTycxBEro7HCxzzV-410">
          <mxGeometry x="46.09539593483496" y="62.68507753942167" width="16.463162087666312" height="16.463162087666312" as="geometry" />
        </mxCell>
        <mxCell id="FkXduTycxBEro7HCxzzV-418" style="rounded=0;orthogonalLoop=1;jettySize=auto;html=1;exitX=1;exitY=0.5;exitDx=0;exitDy=0;entryX=0;entryY=0.5;entryDx=0;entryDy=0;strokeColor=#808080;align=center;verticalAlign=middle;fontFamily=Helvetica;fontSize=11;fontColor=default;labelBackgroundColor=default;endArrow=none;endFill=0;strokeWidth=0.5;" edge="1" parent="FkXduTycxBEro7HCxzzV-410" source="FkXduTycxBEro7HCxzzV-420" target="FkXduTycxBEro7HCxzzV-415">
          <mxGeometry relative="1" as="geometry" />
        </mxCell>
        <mxCell id="FkXduTycxBEro7HCxzzV-419" style="rounded=0;orthogonalLoop=1;jettySize=auto;html=1;exitX=1;exitY=0.5;exitDx=0;exitDy=0;entryX=0;entryY=0.5;entryDx=0;entryDy=0;strokeColor=#808080;align=center;verticalAlign=middle;fontFamily=Helvetica;fontSize=11;fontColor=default;labelBackgroundColor=default;endArrow=none;endFill=0;strokeWidth=0.5;" edge="1" parent="FkXduTycxBEro7HCxzzV-410" source="FkXduTycxBEro7HCxzzV-420" target="FkXduTycxBEro7HCxzzV-416">
          <mxGeometry relative="1" as="geometry" />
        </mxCell>
        <mxCell id="FkXduTycxBEro7HCxzzV-420" value="" style="ellipse;whiteSpace=wrap;html=1;aspect=fixed;fillColor=#dae8fc;strokeColor=#6c8ebf;" vertex="1" parent="FkXduTycxBEro7HCxzzV-410">
          <mxGeometry y="48.609887225027585" width="16.463162087666312" height="16.463162087666312" as="geometry" />
        </mxCell>
        <mxCell id="FkXduTycxBEro7HCxzzV-421" value="&lt;font style=&quot;font-size: 18px;&quot;&gt;L=1&lt;/font&gt;" style="text;html=1;align=center;verticalAlign=middle;whiteSpace=wrap;rounded=0;" vertex="1" parent="FkXduTycxBEro7HCxzzV-408">
          <mxGeometry width="97.29729729729728" height="48.49315068493151" as="geometry" />
        </mxCell>
        <mxCell id="FkXduTycxBEro7HCxzzV-422" value="&lt;font style=&quot;font-size: 18px;&quot;&gt;LightGCN&lt;/font&gt;" style="text;html=1;align=center;verticalAlign=middle;whiteSpace=wrap;rounded=0;" vertex="1" parent="1">
          <mxGeometry x="680" y="741.5" width="60" height="30" as="geometry" />
        </mxCell>
        <mxCell id="FkXduTycxBEro7HCxzzV-424" value="" style="group" vertex="1" connectable="0" parent="1">
          <mxGeometry x="837" y="628" width="20" height="20" as="geometry" />
        </mxCell>
        <mxCell id="FkXduTycxBEro7HCxzzV-425" value="" style="ellipse;whiteSpace=wrap;html=1;aspect=fixed;" vertex="1" parent="FkXduTycxBEro7HCxzzV-424">
          <mxGeometry width="18.91891891891892" height="18.91891891891892" as="geometry" />
        </mxCell>
        <mxCell id="FkXduTycxBEro7HCxzzV-426" value="" style="endArrow=none;html=1;rounded=0;exitX=0;exitY=0.5;exitDx=0;exitDy=0;entryX=1;entryY=0.5;entryDx=0;entryDy=0;" edge="1" parent="FkXduTycxBEro7HCxzzV-424" source="FkXduTycxBEro7HCxzzV-425" target="FkXduTycxBEro7HCxzzV-425">
          <mxGeometry width="50" height="50" relative="1" as="geometry">
            <mxPoint x="38.75" y="18.250000000000004" as="sourcePoint" />
            <mxPoint x="51.25" y="5.750000000000001" as="targetPoint" />
          </mxGeometry>
        </mxCell>
        <mxCell id="FkXduTycxBEro7HCxzzV-427" value="" style="endArrow=none;html=1;rounded=0;exitX=0.5;exitY=1;exitDx=0;exitDy=0;entryX=0.5;entryY=0;entryDx=0;entryDy=0;" edge="1" parent="FkXduTycxBEro7HCxzzV-424" source="FkXduTycxBEro7HCxzzV-425" target="FkXduTycxBEro7HCxzzV-425">
          <mxGeometry width="50" height="50" relative="1" as="geometry">
            <mxPoint x="50" y="10.75" as="sourcePoint" />
            <mxPoint x="70" y="10.75" as="targetPoint" />
          </mxGeometry>
        </mxCell>
        <mxCell id="FkXduTycxBEro7HCxzzV-430" value="&lt;font style=&quot;font-size: 18px;&quot;&gt;加购物车&lt;/font&gt;" style="text;html=1;align=center;verticalAlign=middle;whiteSpace=wrap;rounded=0;" vertex="1" parent="1">
          <mxGeometry x="630" y="570.47" width="80" height="22.07" as="geometry" />
        </mxCell>
        <mxCell id="FkXduTycxBEro7HCxzzV-502" style="edgeStyle=orthogonalEdgeStyle;rounded=0;orthogonalLoop=1;jettySize=auto;html=1;exitX=1.001;exitY=0.34;exitDx=0;exitDy=0;entryX=0;entryY=0.5;entryDx=0;entryDy=0;exitPerimeter=0;" edge="1" parent="1" source="FkXduTycxBEro7HCxzzV-433" target="FkXduTycxBEro7HCxzzV-479">
          <mxGeometry relative="1" as="geometry" />
        </mxCell>
        <mxCell id="FkXduTycxBEro7HCxzzV-433" value="" style="rounded=1;whiteSpace=wrap;html=1;dashed=1;strokeColor=#CCCCCC;" vertex="1" parent="1">
          <mxGeometry x="897" y="560" width="160" height="202" as="geometry" />
        </mxCell>
        <mxCell id="FkXduTycxBEro7HCxzzV-434" value="" style="group" vertex="1" connectable="0" parent="1">
          <mxGeometry x="927" y="575" width="120" height="118" as="geometry" />
        </mxCell>
        <mxCell id="FkXduTycxBEro7HCxzzV-435" value="" style="rounded=1;whiteSpace=wrap;html=1;fillColor=#F5F5F5;strokeColor=#EEB7D3;gradientColor=#EEB7D3;" vertex="1" parent="FkXduTycxBEro7HCxzzV-434">
          <mxGeometry x="22.702702702702695" y="12.931506849315067" width="97.29729729729728" height="105.06849315068494" as="geometry" />
        </mxCell>
        <mxCell id="FkXduTycxBEro7HCxzzV-436" value="" style="group" vertex="1" connectable="0" parent="FkXduTycxBEro7HCxzzV-434">
          <mxGeometry x="38.918918918918905" y="29.0958904109589" width="64.86486486486487" height="80.82191780821917" as="geometry" />
        </mxCell>
        <mxCell id="FkXduTycxBEro7HCxzzV-437" style="rounded=0;orthogonalLoop=1;jettySize=auto;html=1;exitX=1;exitY=0.5;exitDx=0;exitDy=0;entryX=0;entryY=0.5;entryDx=0;entryDy=0;endArrow=none;endFill=0;strokeColor=#808080;strokeWidth=0.5;" edge="1" parent="FkXduTycxBEro7HCxzzV-436" source="FkXduTycxBEro7HCxzzV-440" target="FkXduTycxBEro7HCxzzV-441">
          <mxGeometry relative="1" as="geometry" />
        </mxCell>
        <mxCell id="FkXduTycxBEro7HCxzzV-438" style="rounded=0;orthogonalLoop=1;jettySize=auto;html=1;exitX=1;exitY=0.5;exitDx=0;exitDy=0;entryX=0;entryY=0.5;entryDx=0;entryDy=0;strokeColor=#808080;align=center;verticalAlign=middle;fontFamily=Helvetica;fontSize=11;fontColor=default;labelBackgroundColor=default;endArrow=none;endFill=0;strokeWidth=0.5;" edge="1" parent="FkXduTycxBEro7HCxzzV-436" source="FkXduTycxBEro7HCxzzV-440" target="FkXduTycxBEro7HCxzzV-442">
          <mxGeometry relative="1" as="geometry" />
        </mxCell>
        <mxCell id="FkXduTycxBEro7HCxzzV-439" style="rounded=0;orthogonalLoop=1;jettySize=auto;html=1;exitX=1;exitY=0.5;exitDx=0;exitDy=0;entryX=0;entryY=0.5;entryDx=0;entryDy=0;strokeColor=#808080;align=center;verticalAlign=middle;fontFamily=Helvetica;fontSize=11;fontColor=default;labelBackgroundColor=default;endArrow=none;endFill=0;strokeWidth=0.5;" edge="1" parent="FkXduTycxBEro7HCxzzV-436" source="FkXduTycxBEro7HCxzzV-440" target="FkXduTycxBEro7HCxzzV-443">
          <mxGeometry relative="1" as="geometry" />
        </mxCell>
        <mxCell id="FkXduTycxBEro7HCxzzV-440" value="" style="ellipse;whiteSpace=wrap;html=1;aspect=fixed;fillColor=#dae8fc;strokeColor=#6c8ebf;" vertex="1" parent="FkXduTycxBEro7HCxzzV-436">
          <mxGeometry y="18.14333603817466" width="16.463162087666312" height="16.463162087666312" as="geometry" />
        </mxCell>
        <mxCell id="FkXduTycxBEro7HCxzzV-441" value="" style="ellipse;whiteSpace=wrap;html=1;aspect=fixed;fillColor=#f5f5f5;strokeColor=#666666;fontColor=#333333;" vertex="1" parent="FkXduTycxBEro7HCxzzV-436">
          <mxGeometry x="46.09539593483496" width="16.463162087666312" height="16.463162087666312" as="geometry" />
        </mxCell>
        <mxCell id="FkXduTycxBEro7HCxzzV-442" value="" style="ellipse;whiteSpace=wrap;html=1;aspect=fixed;fillColor=#f5f5f5;strokeColor=#666666;fontColor=#333333;" vertex="1" parent="FkXduTycxBEro7HCxzzV-436">
          <mxGeometry x="46.09539593483496" y="30.466551186853014" width="16.463162087666312" height="16.463162087666312" as="geometry" />
        </mxCell>
        <mxCell id="FkXduTycxBEro7HCxzzV-443" value="" style="ellipse;whiteSpace=wrap;html=1;aspect=fixed;fillColor=#f5f5f5;strokeColor=#666666;fontColor=#333333;" vertex="1" parent="FkXduTycxBEro7HCxzzV-436">
          <mxGeometry x="46.09539593483496" y="62.68507753942167" width="16.463162087666312" height="16.463162087666312" as="geometry" />
        </mxCell>
        <mxCell id="FkXduTycxBEro7HCxzzV-444" style="rounded=0;orthogonalLoop=1;jettySize=auto;html=1;exitX=1;exitY=0.5;exitDx=0;exitDy=0;entryX=0;entryY=0.5;entryDx=0;entryDy=0;strokeColor=#808080;align=center;verticalAlign=middle;fontFamily=Helvetica;fontSize=11;fontColor=default;labelBackgroundColor=default;endArrow=none;endFill=0;strokeWidth=0.5;" edge="1" parent="FkXduTycxBEro7HCxzzV-436" source="FkXduTycxBEro7HCxzzV-446" target="FkXduTycxBEro7HCxzzV-441">
          <mxGeometry relative="1" as="geometry" />
        </mxCell>
        <mxCell id="FkXduTycxBEro7HCxzzV-445" style="rounded=0;orthogonalLoop=1;jettySize=auto;html=1;exitX=1;exitY=0.5;exitDx=0;exitDy=0;entryX=0;entryY=0.5;entryDx=0;entryDy=0;strokeColor=#808080;align=center;verticalAlign=middle;fontFamily=Helvetica;fontSize=11;fontColor=default;labelBackgroundColor=default;endArrow=none;endFill=0;strokeWidth=0.5;" edge="1" parent="FkXduTycxBEro7HCxzzV-436" source="FkXduTycxBEro7HCxzzV-446" target="FkXduTycxBEro7HCxzzV-442">
          <mxGeometry relative="1" as="geometry" />
        </mxCell>
        <mxCell id="FkXduTycxBEro7HCxzzV-446" value="" style="ellipse;whiteSpace=wrap;html=1;aspect=fixed;fillColor=#dae8fc;strokeColor=#6c8ebf;" vertex="1" parent="FkXduTycxBEro7HCxzzV-436">
          <mxGeometry y="48.609887225027585" width="16.463162087666312" height="16.463162087666312" as="geometry" />
        </mxCell>
        <mxCell id="FkXduTycxBEro7HCxzzV-447" value="&lt;font style=&quot;font-size: 18px;&quot;&gt;L=3&lt;/font&gt;" style="text;html=1;align=center;verticalAlign=middle;whiteSpace=wrap;rounded=0;" vertex="1" parent="FkXduTycxBEro7HCxzzV-434">
          <mxGeometry width="97.29729729729728" height="48.49315068493151" as="geometry" />
        </mxCell>
        <mxCell id="FkXduTycxBEro7HCxzzV-448" value="" style="group" vertex="1" connectable="0" parent="1">
          <mxGeometry x="907" y="595" width="120" height="118" as="geometry" />
        </mxCell>
        <mxCell id="FkXduTycxBEro7HCxzzV-449" value="" style="rounded=1;whiteSpace=wrap;html=1;fillColor=#f5f5f5;strokeColor=#EEB7D3;gradientColor=#EEB7D3;" vertex="1" parent="FkXduTycxBEro7HCxzzV-448">
          <mxGeometry x="22.702702702702695" y="12.931506849315067" width="97.29729729729728" height="105.06849315068494" as="geometry" />
        </mxCell>
        <mxCell id="FkXduTycxBEro7HCxzzV-450" value="" style="group" vertex="1" connectable="0" parent="FkXduTycxBEro7HCxzzV-448">
          <mxGeometry x="38.918918918918905" y="29.0958904109589" width="64.86486486486487" height="80.82191780821917" as="geometry" />
        </mxCell>
        <mxCell id="FkXduTycxBEro7HCxzzV-451" style="rounded=0;orthogonalLoop=1;jettySize=auto;html=1;exitX=1;exitY=0.5;exitDx=0;exitDy=0;entryX=0;entryY=0.5;entryDx=0;entryDy=0;endArrow=none;endFill=0;strokeColor=#808080;strokeWidth=0.5;" edge="1" parent="FkXduTycxBEro7HCxzzV-450" source="FkXduTycxBEro7HCxzzV-454" target="FkXduTycxBEro7HCxzzV-455">
          <mxGeometry relative="1" as="geometry" />
        </mxCell>
        <mxCell id="FkXduTycxBEro7HCxzzV-452" style="rounded=0;orthogonalLoop=1;jettySize=auto;html=1;exitX=1;exitY=0.5;exitDx=0;exitDy=0;entryX=0;entryY=0.5;entryDx=0;entryDy=0;strokeColor=#808080;align=center;verticalAlign=middle;fontFamily=Helvetica;fontSize=11;fontColor=default;labelBackgroundColor=default;endArrow=none;endFill=0;strokeWidth=0.5;" edge="1" parent="FkXduTycxBEro7HCxzzV-450" source="FkXduTycxBEro7HCxzzV-454" target="FkXduTycxBEro7HCxzzV-456">
          <mxGeometry relative="1" as="geometry" />
        </mxCell>
        <mxCell id="FkXduTycxBEro7HCxzzV-453" style="rounded=0;orthogonalLoop=1;jettySize=auto;html=1;exitX=1;exitY=0.5;exitDx=0;exitDy=0;entryX=0;entryY=0.5;entryDx=0;entryDy=0;strokeColor=#808080;align=center;verticalAlign=middle;fontFamily=Helvetica;fontSize=11;fontColor=default;labelBackgroundColor=default;endArrow=none;endFill=0;strokeWidth=0.5;" edge="1" parent="FkXduTycxBEro7HCxzzV-450" source="FkXduTycxBEro7HCxzzV-454" target="FkXduTycxBEro7HCxzzV-457">
          <mxGeometry relative="1" as="geometry" />
        </mxCell>
        <mxCell id="FkXduTycxBEro7HCxzzV-454" value="" style="ellipse;whiteSpace=wrap;html=1;aspect=fixed;fillColor=#dae8fc;strokeColor=#6c8ebf;" vertex="1" parent="FkXduTycxBEro7HCxzzV-450">
          <mxGeometry y="18.14333603817466" width="16.463162087666312" height="16.463162087666312" as="geometry" />
        </mxCell>
        <mxCell id="FkXduTycxBEro7HCxzzV-455" value="" style="ellipse;whiteSpace=wrap;html=1;aspect=fixed;fillColor=#f5f5f5;strokeColor=#666666;fontColor=#333333;" vertex="1" parent="FkXduTycxBEro7HCxzzV-450">
          <mxGeometry x="46.09539593483496" width="16.463162087666312" height="16.463162087666312" as="geometry" />
        </mxCell>
        <mxCell id="FkXduTycxBEro7HCxzzV-456" value="" style="ellipse;whiteSpace=wrap;html=1;aspect=fixed;fillColor=#f5f5f5;strokeColor=#666666;fontColor=#333333;" vertex="1" parent="FkXduTycxBEro7HCxzzV-450">
          <mxGeometry x="46.09539593483496" y="30.466551186853014" width="16.463162087666312" height="16.463162087666312" as="geometry" />
        </mxCell>
        <mxCell id="FkXduTycxBEro7HCxzzV-457" value="" style="ellipse;whiteSpace=wrap;html=1;aspect=fixed;fillColor=#f5f5f5;strokeColor=#666666;fontColor=#333333;" vertex="1" parent="FkXduTycxBEro7HCxzzV-450">
          <mxGeometry x="46.09539593483496" y="62.68507753942167" width="16.463162087666312" height="16.463162087666312" as="geometry" />
        </mxCell>
        <mxCell id="FkXduTycxBEro7HCxzzV-458" style="rounded=0;orthogonalLoop=1;jettySize=auto;html=1;exitX=1;exitY=0.5;exitDx=0;exitDy=0;entryX=0;entryY=0.5;entryDx=0;entryDy=0;strokeColor=#808080;align=center;verticalAlign=middle;fontFamily=Helvetica;fontSize=11;fontColor=default;labelBackgroundColor=default;endArrow=none;endFill=0;strokeWidth=0.5;" edge="1" parent="FkXduTycxBEro7HCxzzV-450" source="FkXduTycxBEro7HCxzzV-460" target="FkXduTycxBEro7HCxzzV-455">
          <mxGeometry relative="1" as="geometry" />
        </mxCell>
        <mxCell id="FkXduTycxBEro7HCxzzV-459" style="rounded=0;orthogonalLoop=1;jettySize=auto;html=1;exitX=1;exitY=0.5;exitDx=0;exitDy=0;entryX=0;entryY=0.5;entryDx=0;entryDy=0;strokeColor=#808080;align=center;verticalAlign=middle;fontFamily=Helvetica;fontSize=11;fontColor=default;labelBackgroundColor=default;endArrow=none;endFill=0;strokeWidth=0.5;" edge="1" parent="FkXduTycxBEro7HCxzzV-450" source="FkXduTycxBEro7HCxzzV-460" target="FkXduTycxBEro7HCxzzV-456">
          <mxGeometry relative="1" as="geometry" />
        </mxCell>
        <mxCell id="FkXduTycxBEro7HCxzzV-460" value="" style="ellipse;whiteSpace=wrap;html=1;aspect=fixed;fillColor=#dae8fc;strokeColor=#6c8ebf;" vertex="1" parent="FkXduTycxBEro7HCxzzV-450">
          <mxGeometry y="48.609887225027585" width="16.463162087666312" height="16.463162087666312" as="geometry" />
        </mxCell>
        <mxCell id="FkXduTycxBEro7HCxzzV-461" value="&lt;font style=&quot;font-size: 18px;&quot;&gt;L=2&lt;/font&gt;" style="text;html=1;align=center;verticalAlign=middle;whiteSpace=wrap;rounded=0;" vertex="1" parent="FkXduTycxBEro7HCxzzV-448">
          <mxGeometry width="97.29729729729728" height="48.49315068493151" as="geometry" />
        </mxCell>
        <mxCell id="FkXduTycxBEro7HCxzzV-462" value="" style="group" vertex="1" connectable="0" parent="1">
          <mxGeometry x="887" y="615" width="120" height="118" as="geometry" />
        </mxCell>
        <mxCell id="FkXduTycxBEro7HCxzzV-463" value="" style="rounded=1;whiteSpace=wrap;html=1;fillColor=#f5f5f5;strokeColor=#EEB7D3;gradientColor=#EEB7D3;" vertex="1" parent="FkXduTycxBEro7HCxzzV-462">
          <mxGeometry x="22.702702702702695" y="12.931506849315067" width="97.29729729729728" height="105.06849315068494" as="geometry" />
        </mxCell>
        <mxCell id="FkXduTycxBEro7HCxzzV-464" value="" style="group" vertex="1" connectable="0" parent="FkXduTycxBEro7HCxzzV-462">
          <mxGeometry x="38.918918918918905" y="29.0958904109589" width="64.86486486486487" height="80.82191780821917" as="geometry" />
        </mxCell>
        <mxCell id="FkXduTycxBEro7HCxzzV-465" style="rounded=0;orthogonalLoop=1;jettySize=auto;html=1;exitX=1;exitY=0.5;exitDx=0;exitDy=0;entryX=0;entryY=0.5;entryDx=0;entryDy=0;endArrow=none;endFill=0;strokeColor=#808080;strokeWidth=0.5;" edge="1" parent="FkXduTycxBEro7HCxzzV-464" source="FkXduTycxBEro7HCxzzV-468" target="FkXduTycxBEro7HCxzzV-469">
          <mxGeometry relative="1" as="geometry" />
        </mxCell>
        <mxCell id="FkXduTycxBEro7HCxzzV-466" style="rounded=0;orthogonalLoop=1;jettySize=auto;html=1;exitX=1;exitY=0.5;exitDx=0;exitDy=0;entryX=0;entryY=0.5;entryDx=0;entryDy=0;strokeColor=#808080;align=center;verticalAlign=middle;fontFamily=Helvetica;fontSize=11;fontColor=default;labelBackgroundColor=default;endArrow=none;endFill=0;strokeWidth=0.5;" edge="1" parent="FkXduTycxBEro7HCxzzV-464" source="FkXduTycxBEro7HCxzzV-468" target="FkXduTycxBEro7HCxzzV-470">
          <mxGeometry relative="1" as="geometry" />
        </mxCell>
        <mxCell id="FkXduTycxBEro7HCxzzV-467" style="rounded=0;orthogonalLoop=1;jettySize=auto;html=1;exitX=1;exitY=0.5;exitDx=0;exitDy=0;entryX=0;entryY=0.5;entryDx=0;entryDy=0;strokeColor=#808080;align=center;verticalAlign=middle;fontFamily=Helvetica;fontSize=11;fontColor=default;labelBackgroundColor=default;endArrow=none;endFill=0;strokeWidth=0.5;" edge="1" parent="FkXduTycxBEro7HCxzzV-464" source="FkXduTycxBEro7HCxzzV-468" target="FkXduTycxBEro7HCxzzV-471">
          <mxGeometry relative="1" as="geometry" />
        </mxCell>
        <mxCell id="FkXduTycxBEro7HCxzzV-468" value="" style="ellipse;whiteSpace=wrap;html=1;aspect=fixed;fillColor=#dae8fc;strokeColor=#6c8ebf;" vertex="1" parent="FkXduTycxBEro7HCxzzV-464">
          <mxGeometry y="18.14333603817466" width="16.463162087666312" height="16.463162087666312" as="geometry" />
        </mxCell>
        <mxCell id="FkXduTycxBEro7HCxzzV-469" value="" style="ellipse;whiteSpace=wrap;html=1;aspect=fixed;fillColor=#f5f5f5;strokeColor=#666666;fontColor=#333333;" vertex="1" parent="FkXduTycxBEro7HCxzzV-464">
          <mxGeometry x="46.09539593483496" width="16.463162087666312" height="16.463162087666312" as="geometry" />
        </mxCell>
        <mxCell id="FkXduTycxBEro7HCxzzV-470" value="" style="ellipse;whiteSpace=wrap;html=1;aspect=fixed;fillColor=#f5f5f5;strokeColor=#666666;fontColor=#333333;" vertex="1" parent="FkXduTycxBEro7HCxzzV-464">
          <mxGeometry x="46.09539593483496" y="30.466551186853014" width="16.463162087666312" height="16.463162087666312" as="geometry" />
        </mxCell>
        <mxCell id="FkXduTycxBEro7HCxzzV-471" value="" style="ellipse;whiteSpace=wrap;html=1;aspect=fixed;fillColor=#f5f5f5;strokeColor=#666666;fontColor=#333333;" vertex="1" parent="FkXduTycxBEro7HCxzzV-464">
          <mxGeometry x="46.09539593483496" y="62.68507753942167" width="16.463162087666312" height="16.463162087666312" as="geometry" />
        </mxCell>
        <mxCell id="FkXduTycxBEro7HCxzzV-472" style="rounded=0;orthogonalLoop=1;jettySize=auto;html=1;exitX=1;exitY=0.5;exitDx=0;exitDy=0;entryX=0;entryY=0.5;entryDx=0;entryDy=0;strokeColor=#808080;align=center;verticalAlign=middle;fontFamily=Helvetica;fontSize=11;fontColor=default;labelBackgroundColor=default;endArrow=none;endFill=0;strokeWidth=0.5;" edge="1" parent="FkXduTycxBEro7HCxzzV-464" source="FkXduTycxBEro7HCxzzV-474" target="FkXduTycxBEro7HCxzzV-469">
          <mxGeometry relative="1" as="geometry" />
        </mxCell>
        <mxCell id="FkXduTycxBEro7HCxzzV-473" style="rounded=0;orthogonalLoop=1;jettySize=auto;html=1;exitX=1;exitY=0.5;exitDx=0;exitDy=0;entryX=0;entryY=0.5;entryDx=0;entryDy=0;strokeColor=#808080;align=center;verticalAlign=middle;fontFamily=Helvetica;fontSize=11;fontColor=default;labelBackgroundColor=default;endArrow=none;endFill=0;strokeWidth=0.5;" edge="1" parent="FkXduTycxBEro7HCxzzV-464" source="FkXduTycxBEro7HCxzzV-474" target="FkXduTycxBEro7HCxzzV-470">
          <mxGeometry relative="1" as="geometry" />
        </mxCell>
        <mxCell id="FkXduTycxBEro7HCxzzV-474" value="" style="ellipse;whiteSpace=wrap;html=1;aspect=fixed;fillColor=#dae8fc;strokeColor=#6c8ebf;" vertex="1" parent="FkXduTycxBEro7HCxzzV-464">
          <mxGeometry y="48.609887225027585" width="16.463162087666312" height="16.463162087666312" as="geometry" />
        </mxCell>
        <mxCell id="FkXduTycxBEro7HCxzzV-475" value="&lt;font style=&quot;font-size: 18px;&quot;&gt;L=1&lt;/font&gt;" style="text;html=1;align=center;verticalAlign=middle;whiteSpace=wrap;rounded=0;" vertex="1" parent="FkXduTycxBEro7HCxzzV-462">
          <mxGeometry width="97.29729729729728" height="48.49315068493151" as="geometry" />
        </mxCell>
        <mxCell id="FkXduTycxBEro7HCxzzV-476" value="&lt;font style=&quot;font-size: 18px;&quot;&gt;LightGCN&lt;/font&gt;" style="text;html=1;align=center;verticalAlign=middle;whiteSpace=wrap;rounded=0;" vertex="1" parent="1">
          <mxGeometry x="942" y="735" width="60" height="30" as="geometry" />
        </mxCell>
        <mxCell id="FkXduTycxBEro7HCxzzV-477" value="&lt;font style=&quot;font-size: 16px;&quot;&gt;\(e_{i}^{buy^\prime}\)&lt;/font&gt;" style="text;html=1;align=center;verticalAlign=middle;whiteSpace=wrap;rounded=0;" vertex="1" parent="1">
          <mxGeometry x="1117" y="616.5" width="55" height="25.8" as="geometry" />
        </mxCell>
        <mxCell id="FkXduTycxBEro7HCxzzV-478" value="" style="group" vertex="1" connectable="0" parent="1">
          <mxGeometry x="1077" y="619.4" width="20" height="20" as="geometry" />
        </mxCell>
        <mxCell id="FkXduTycxBEro7HCxzzV-479" value="" style="ellipse;whiteSpace=wrap;html=1;aspect=fixed;" vertex="1" parent="FkXduTycxBEro7HCxzzV-478">
          <mxGeometry width="18.91891891891892" height="18.91891891891892" as="geometry" />
        </mxCell>
        <mxCell id="FkXduTycxBEro7HCxzzV-480" value="" style="endArrow=none;html=1;rounded=0;exitX=0;exitY=0.5;exitDx=0;exitDy=0;entryX=1;entryY=0.5;entryDx=0;entryDy=0;" edge="1" parent="FkXduTycxBEro7HCxzzV-478" source="FkXduTycxBEro7HCxzzV-479" target="FkXduTycxBEro7HCxzzV-479">
          <mxGeometry width="50" height="50" relative="1" as="geometry">
            <mxPoint x="38.75" y="18.250000000000004" as="sourcePoint" />
            <mxPoint x="51.25" y="5.750000000000001" as="targetPoint" />
          </mxGeometry>
        </mxCell>
        <mxCell id="FkXduTycxBEro7HCxzzV-481" value="" style="endArrow=none;html=1;rounded=0;exitX=0.5;exitY=1;exitDx=0;exitDy=0;entryX=0.5;entryY=0;entryDx=0;entryDy=0;" edge="1" parent="FkXduTycxBEro7HCxzzV-478" source="FkXduTycxBEro7HCxzzV-479" target="FkXduTycxBEro7HCxzzV-479">
          <mxGeometry width="50" height="50" relative="1" as="geometry">
            <mxPoint x="50" y="10.75" as="sourcePoint" />
            <mxPoint x="70" y="10.75" as="targetPoint" />
          </mxGeometry>
        </mxCell>
        <mxCell id="FkXduTycxBEro7HCxzzV-483" style="edgeStyle=orthogonalEdgeStyle;rounded=0;orthogonalLoop=1;jettySize=auto;html=1;exitX=1;exitY=0.5;exitDx=0;exitDy=0;" edge="1" parent="1" source="FkXduTycxBEro7HCxzzV-479" target="FkXduTycxBEro7HCxzzV-477">
          <mxGeometry relative="1" as="geometry">
            <mxPoint x="1088.4594594594596" y="638.3189189189189" as="sourcePoint" />
            <mxPoint x="1086.5" y="664.4" as="targetPoint" />
            <Array as="points">
              <mxPoint x="1122" y="628.8" />
              <mxPoint x="1122" y="628.8" />
            </Array>
          </mxGeometry>
        </mxCell>
        <mxCell id="FkXduTycxBEro7HCxzzV-484" value="&lt;font style=&quot;font-size: 18px;&quot;&gt;购买&lt;/font&gt;" style="text;html=1;align=center;verticalAlign=middle;whiteSpace=wrap;rounded=0;" vertex="1" parent="1">
          <mxGeometry x="897" y="562" width="42.3" height="22.07" as="geometry" />
        </mxCell>
        <mxCell id="FkXduTycxBEro7HCxzzV-500" style="edgeStyle=orthogonalEdgeStyle;rounded=0;orthogonalLoop=1;jettySize=auto;html=1;exitX=1;exitY=0.5;exitDx=0;exitDy=0;entryX=-0.002;entryY=0.385;entryDx=0;entryDy=0;entryPerimeter=0;" edge="1" parent="1" source="FkXduTycxBEro7HCxzzV-425" target="FkXduTycxBEro7HCxzzV-433">
          <mxGeometry relative="1" as="geometry" />
        </mxCell>
        <mxCell id="FkXduTycxBEro7HCxzzV-505" style="edgeStyle=orthogonalEdgeStyle;rounded=0;orthogonalLoop=1;jettySize=auto;html=1;exitX=0;exitY=0.5;exitDx=0;exitDy=0;entryX=-0.005;entryY=0.334;entryDx=0;entryDy=0;entryPerimeter=0;" edge="1" parent="1" source="FkXduTycxBEro7HCxzzV-251" target="FkXduTycxBEro7HCxzzV-379">
          <mxGeometry relative="1" as="geometry">
            <Array as="points">
              <mxPoint x="560" y="533" />
              <mxPoint x="560" y="635" />
              <mxPoint x="629" y="635" />
            </Array>
          </mxGeometry>
        </mxCell>
      </root>
    </mxGraphModel>
  </diagram>
</mxfile>
